<?xml version="1.0" encoding="UTF-8"?>
<!DOCTYPE svg PUBLIC "-//W3C//DTD SVG 1.1//EN" "http://www.w3.org/Graphics/SVG/1.1/DTD/svg11.dtd">
<svg xmlns="http://www.w3.org/2000/svg" version="1.1" width="3012px" height="3012px" style="shape-rendering:geometricPrecision; text-rendering:geometricPrecision; image-rendering:optimizeQuality; fill-rule:evenodd; clip-rule:evenodd" xmlns:xlink="http://www.w3.org/1999/xlink">
<g><path style="opacity:0.992" fill="#000000" d="M 1504.5,-0.5 C 1505.17,-0.5 1505.83,-0.5 1506.5,-0.5C 1739.5,320.675 1972.34,642.009 2205,963.5C 2305.3,1442.64 2405.46,1921.81 2505.5,2401C 2505.17,2402.17 2504.83,2403.33 2504.5,2404.5C 2171.94,2606.61 1839.6,2808.94 1507.5,3011.5C 1506.17,3011.5 1504.83,3011.5 1503.5,3011.5C 1171.4,2808.94 839.064,2606.61 506.5,2404.5C 506.167,2403.33 505.833,2402.17 505.5,2401C 603.538,1923.81 701.705,1446.64 800,969.5C 1034.66,646.008 1269.5,322.675 1504.5,-0.5 Z M 1504.5,254.5 C 1505.5,254.414 1506.33,254.748 1507,255.5C 1686.09,502.677 1865.42,749.677 2045,996.5C 2045.78,997.729 2046.28,999.062 2046.5,1000.5C 1866.56,1545.32 1686.23,2089.98 1505.5,2634.5C 1324.77,2089.98 1144.44,1545.32 964.5,1000.5C 964.719,999.062 965.219,997.729 966,996.5C 1145.75,749.314 1325.25,501.981 1504.5,254.5 Z M 890.5,1249.5 C 898.129,1269.88 905.295,1290.55 912,1311.5C 1073.44,1801.14 1234.44,2290.81 1395,2780.5C 1152.83,2632.33 910.667,2484.17 668.5,2336C 743.072,1973.97 817.072,1611.81 890.5,1249.5 Z M 2113.5,1249.5 C 2187.88,1611.56 2262.21,1973.73 2336.5,2336C 2094.33,2484.17 1852.17,2632.33 1610,2780.5C 1777.5,2270.15 1945.34,1759.82 2113.5,1249.5 Z"/></g>
</svg>
