<?xml version="1.0" encoding="UTF-8"?>
<!DOCTYPE svg PUBLIC "-//W3C//DTD SVG 1.1//EN" "http://www.w3.org/Graphics/SVG/1.1/DTD/svg11.dtd">
<svg xmlns="http://www.w3.org/2000/svg" version="1.1" width="880px" height="787px" style="shape-rendering:geometricPrecision; text-rendering:geometricPrecision; image-rendering:optimizeQuality; fill-rule:evenodd; clip-rule:evenodd" xmlns:xlink="http://www.w3.org/1999/xlink">
<g><path style="opacity:1" fill="#0d0d0d" d="M 268.5,12.5 C 268.821,14.0481 269.821,14.7148 271.5,14.5C 273.062,14.7329 274.395,15.3995 275.5,16.5C 275.821,18.0481 276.821,18.7148 278.5,18.5C 279.167,18.8333 279.833,19.1667 280.5,19.5C 280.821,21.0481 281.821,21.7148 283.5,21.5C 286.661,22.9131 289.661,24.5797 292.5,26.5C 292.821,28.0481 293.821,28.7148 295.5,28.5C 298.661,29.9131 301.661,31.5797 304.5,33.5C 304.821,35.0481 305.821,35.7148 307.5,35.5C 308.167,35.8333 308.833,36.1667 309.5,36.5C 309.821,38.0481 310.821,38.7148 312.5,38.5C 315.661,39.9131 318.661,41.5797 321.5,43.5C 321.821,45.0481 322.821,45.7148 324.5,45.5C 325.167,45.8333 325.833,46.1667 326.5,46.5C 326.821,48.0481 327.821,48.7148 329.5,48.5C 332.661,49.9131 335.661,51.5797 338.5,53.5C 338.821,55.0481 339.821,55.7148 341.5,55.5C 342.167,55.8333 342.833,56.1667 343.5,56.5C 343.821,58.0481 344.821,58.7148 346.5,58.5C 349.661,59.9131 352.661,61.5797 355.5,63.5C 355.821,65.0481 356.821,65.7148 358.5,65.5C 361.661,66.9131 364.661,68.5797 367.5,70.5C 367.821,72.0481 368.821,72.7148 370.5,72.5C 371.167,72.8333 371.833,73.1667 372.5,73.5C 372.821,75.0481 373.821,75.7148 375.5,75.5C 378.661,76.9131 381.661,78.5797 384.5,80.5C 384.821,82.0481 385.821,82.7148 387.5,82.5C 388.167,82.8333 388.833,83.1667 389.5,83.5C 389.821,85.0481 390.821,85.7148 392.5,85.5C 395.661,86.9131 398.661,88.5797 401.5,90.5C 401.821,92.0481 402.821,92.7148 404.5,92.5C 409.424,94.7668 414.091,97.4335 418.5,100.5C 418.821,102.048 419.821,102.715 421.5,102.5C 426.424,104.767 431.091,107.433 435.5,110.5C 435.821,112.048 436.821,112.715 438.5,112.5C 441.661,113.913 444.661,115.58 447.5,117.5C 447.821,119.048 448.821,119.715 450.5,119.5C 451.167,119.833 451.833,120.167 452.5,120.5C 453.035,122.446 454.368,123.446 456.5,123.5C 460.791,126.123 464.457,129.456 467.5,133.5C 467.738,135.404 468.738,136.738 470.5,137.5C 470.427,139.027 471.094,140.027 472.5,140.5C 472.427,142.027 473.094,143.027 474.5,143.5C 476.065,145.509 477.065,147.843 477.5,150.5C 477.41,153.152 478.076,155.485 479.5,157.5C 480.468,159.607 480.802,161.941 480.5,164.5C 480.824,192.574 480.491,220.574 479.5,248.5C 452.332,265.254 424.665,281.254 396.5,296.5C 394.836,271.016 393.836,245.35 393.5,219.5C 391.524,203.214 384.524,189.547 372.5,178.5C 372.027,177.094 371.027,176.427 369.5,176.5C 369.027,175.094 368.027,174.427 366.5,174.5C 365.508,174.672 364.842,174.338 364.5,173.5C 364.027,172.094 363.027,171.427 361.5,171.5C 360.508,171.672 359.842,171.338 359.5,170.5C 359.027,169.094 358.027,168.427 356.5,168.5C 355.508,168.672 354.842,168.338 354.5,167.5C 354.027,166.094 353.027,165.427 351.5,165.5C 350.508,165.672 349.842,165.338 349.5,164.5C 349.027,163.094 348.027,162.427 346.5,162.5C 344.566,161.89 342.899,160.89 341.5,159.5C 341.027,158.094 340.027,157.427 338.5,157.5C 337.508,157.672 336.842,157.338 336.5,156.5C 336.027,155.094 335.027,154.427 333.5,154.5C 332.508,154.672 331.842,154.338 331.5,153.5C 331.027,152.094 330.027,151.427 328.5,151.5C 327.508,151.672 326.842,151.338 326.5,150.5C 326.027,149.094 325.027,148.427 323.5,148.5C 322.508,148.672 321.842,148.338 321.5,147.5C 321.027,146.094 320.027,145.427 318.5,145.5C 317.508,145.672 316.842,145.338 316.5,144.5C 316.027,143.094 315.027,142.427 313.5,142.5C 312.508,142.672 311.842,142.338 311.5,141.5C 311.027,140.094 310.027,139.427 308.5,139.5C 307.508,139.672 306.842,139.338 306.5,138.5C 306.027,137.094 305.027,136.427 303.5,136.5C 302.508,136.672 301.842,136.338 301.5,135.5C 301.027,134.094 300.027,133.427 298.5,133.5C 296.566,132.89 294.899,131.89 293.5,130.5C 293.027,129.094 292.027,128.427 290.5,128.5C 289.508,128.672 288.842,128.338 288.5,127.5C 288.027,126.094 287.027,125.427 285.5,125.5C 284.508,125.672 283.842,125.338 283.5,124.5C 283.027,123.094 282.027,122.427 280.5,122.5C 279.508,122.672 278.842,122.338 278.5,121.5C 278.027,120.094 277.027,119.427 275.5,119.5C 274.508,119.672 273.842,119.338 273.5,118.5C 273.027,117.094 272.027,116.427 270.5,116.5C 254.132,107.841 237.132,106.341 219.5,112C 183.909,131.934 148.575,152.267 113.5,173C 99.6682,181.817 91.1682,194.317 88,210.5C 87.5,255.165 87.3333,299.832 87.5,344.5C 87.1706,347.228 87.8372,349.562 89.5,351.5C 91.0198,353.89 92.0198,356.557 92.5,359.5C 92.427,361.027 93.0937,362.027 94.5,362.5C 95.3382,362.842 95.6716,363.508 95.5,364.5C 95.427,366.027 96.0937,367.027 97.5,367.5C 97.7376,369.404 98.7376,370.738 100.5,371.5C 104.022,374.75 107.689,377.75 111.5,380.5C 111.821,382.048 112.821,382.715 114.5,382.5C 115.167,382.833 115.833,383.167 116.5,383.5C 116.821,385.048 117.821,385.715 119.5,385.5C 120.167,385.833 120.833,386.167 121.5,386.5C 121.821,388.048 122.821,388.715 124.5,388.5C 125.167,388.833 125.833,389.167 126.5,389.5C 127.035,391.446 128.368,392.446 130.5,392.5C 130.833,392.5 131.167,392.5 131.5,392.5C 132.035,394.446 133.368,395.446 135.5,395.5C 138.738,396.738 141.738,398.404 144.5,400.5C 144.821,402.048 145.821,402.715 147.5,402.5C 148.167,402.833 148.833,403.167 149.5,403.5C 149.821,405.048 150.821,405.715 152.5,405.5C 153.167,405.833 153.833,406.167 154.5,406.5C 154.821,408.048 155.821,408.715 157.5,408.5C 158.167,408.833 158.833,409.167 159.5,409.5C 159.821,411.048 160.821,411.715 162.5,411.5C 163.167,411.833 163.833,412.167 164.5,412.5C 164.821,414.048 165.821,414.715 167.5,414.5C 168.167,414.833 168.833,415.167 169.5,415.5C 169.821,417.048 170.821,417.715 172.5,417.5C 173.167,417.833 173.833,418.167 174.5,418.5C 175.035,420.446 176.368,421.446 178.5,421.5C 183.407,423.739 188.074,426.406 192.5,429.5C 192.821,431.048 193.821,431.715 195.5,431.5C 196.167,431.833 196.833,432.167 197.5,432.5C 197.821,434.048 198.821,434.715 200.5,434.5C 201.167,434.833 201.833,435.167 202.5,435.5C 202.821,437.048 203.821,437.715 205.5,437.5C 206.167,437.833 206.833,438.167 207.5,438.5C 207.821,440.048 208.821,440.715 210.5,440.5C 230.503,451.166 250.503,451.166 270.5,440.5C 272.027,440.573 273.027,439.906 273.5,438.5C 273.842,437.662 274.508,437.328 275.5,437.5C 277.027,437.573 278.027,436.906 278.5,435.5C 278.842,434.662 279.508,434.328 280.5,434.5C 282.027,434.573 283.027,433.906 283.5,432.5C 283.842,431.662 284.508,431.328 285.5,431.5C 287.027,431.573 288.027,430.906 288.5,429.5C 288.842,428.662 289.508,428.328 290.5,428.5C 292.027,428.573 293.027,427.906 293.5,426.5C 293.842,425.662 294.508,425.328 295.5,425.5C 297.027,425.573 298.027,424.906 298.5,423.5C 298.842,422.662 299.508,422.328 300.5,422.5C 302.027,422.573 303.027,421.906 303.5,420.5C 303.842,419.662 304.508,419.328 305.5,419.5C 307.027,419.573 308.027,418.906 308.5,417.5C 308.842,416.662 309.508,416.328 310.5,416.5C 312.027,416.573 313.027,415.906 313.5,414.5C 313.842,413.662 314.508,413.328 315.5,413.5C 317.027,413.573 318.027,412.906 318.5,411.5C 318.842,410.662 319.508,410.328 320.5,410.5C 322.027,410.573 323.027,409.906 323.5,408.5C 323.842,407.662 324.508,407.328 325.5,407.5C 327.027,407.573 328.027,406.906 328.5,405.5C 328.842,404.662 329.508,404.328 330.5,404.5C 332.027,404.573 333.027,403.906 333.5,402.5C 333.842,401.662 334.508,401.328 335.5,401.5C 337.027,401.573 338.027,400.906 338.5,399.5C 338.842,398.662 339.508,398.328 340.5,398.5C 342.027,398.573 343.027,397.906 343.5,396.5C 343.842,395.662 344.508,395.328 345.5,395.5C 347.027,395.573 348.027,394.906 348.5,393.5C 348.842,392.662 349.508,392.328 350.5,392.5C 352.027,392.573 353.027,391.906 353.5,390.5C 353.842,389.662 354.508,389.328 355.5,389.5C 357.027,389.573 358.027,388.906 358.5,387.5C 358.842,386.662 359.508,386.328 360.5,386.5C 362.027,386.573 363.027,385.906 363.5,384.5C 363.842,383.662 364.508,383.328 365.5,383.5C 367.027,383.573 368.027,382.906 368.5,381.5C 368.842,380.662 369.508,380.328 370.5,380.5C 372.027,380.573 373.027,379.906 373.5,378.5C 373.842,377.662 374.508,377.328 375.5,377.5C 377.027,377.573 378.027,376.906 378.5,375.5C 378.842,374.662 379.508,374.328 380.5,374.5C 382.027,374.573 383.027,373.906 383.5,372.5C 383.842,371.662 384.508,371.328 385.5,371.5C 387.027,371.573 388.027,370.906 388.5,369.5C 388.842,368.662 389.508,368.328 390.5,368.5C 392.027,368.573 393.027,367.906 393.5,366.5C 394.514,365.326 395.847,364.66 397.5,364.5C 399.027,364.573 400.027,363.906 400.5,362.5C 402.849,360.659 405.515,359.326 408.5,358.5C 410.027,358.573 411.027,357.906 411.5,356.5C 413.181,354.992 415.181,353.992 417.5,353.5C 419.027,353.573 420.027,352.906 420.5,351.5C 422.181,349.992 424.181,348.992 426.5,348.5C 428.027,348.573 429.027,347.906 429.5,346.5C 431.181,344.992 433.181,343.992 435.5,343.5C 437.027,343.573 438.027,342.906 438.5,341.5C 440.849,339.659 443.515,338.326 446.5,337.5C 448.027,337.573 449.027,336.906 449.5,335.5C 451.181,333.992 453.181,332.992 455.5,332.5C 457.027,332.573 458.027,331.906 458.5,330.5C 460.181,328.992 462.181,327.992 464.5,327.5C 466.027,327.573 467.027,326.906 467.5,325.5C 469.849,323.659 472.515,322.326 475.5,321.5C 477.027,321.573 478.027,320.906 478.5,319.5C 479.514,318.326 480.847,317.66 482.5,317.5C 484.027,317.573 485.027,316.906 485.5,315.5C 485.842,314.662 486.508,314.328 487.5,314.5C 489.027,314.573 490.027,313.906 490.5,312.5C 493.24,310.44 496.24,308.774 499.5,307.5C 501.027,307.573 502.027,306.906 502.5,305.5C 502.842,304.662 503.508,304.328 504.5,304.5C 506.027,304.573 507.027,303.906 507.5,302.5C 510.24,300.44 513.24,298.774 516.5,297.5C 518.027,297.573 519.027,296.906 519.5,295.5C 519.842,294.662 520.508,294.328 521.5,294.5C 523.027,294.573 524.027,293.906 524.5,292.5C 524.842,291.662 525.508,291.328 526.5,291.5C 528.027,291.573 529.027,290.906 529.5,289.5C 530.514,288.326 531.847,287.66 533.5,287.5C 535.027,287.573 536.027,286.906 536.5,285.5C 536.842,284.662 537.508,284.328 538.5,284.5C 540.027,284.573 541.027,283.906 541.5,282.5C 541.842,281.662 542.508,281.328 543.5,281.5C 545.027,281.573 546.027,280.906 546.5,279.5C 547.514,278.326 548.847,277.66 550.5,277.5C 552.027,277.573 553.027,276.906 553.5,275.5C 553.842,274.662 554.508,274.328 555.5,274.5C 557.027,274.573 558.027,273.906 558.5,272.5C 558.842,271.662 559.508,271.328 560.5,271.5C 562.027,271.573 563.027,270.906 563.5,269.5C 566.24,267.44 569.24,265.774 572.5,264.5C 574.027,264.573 575.027,263.906 575.5,262.5C 575.842,261.662 576.508,261.328 577.5,261.5C 579.027,261.573 580.027,260.906 580.5,259.5C 583.24,257.44 586.24,255.774 589.5,254.5C 591.027,254.573 592.027,253.906 592.5,252.5C 592.842,251.662 593.508,251.328 594.5,251.5C 596.027,251.573 597.027,250.906 597.5,249.5C 597.842,248.662 598.508,248.328 599.5,248.5C 601.027,248.573 602.027,247.906 602.5,246.5C 603.514,245.326 604.847,244.66 606.5,244.5C 608.027,244.573 609.027,243.906 609.5,242.5C 633.135,231.453 655.468,233.786 676.5,249.5C 676.821,251.048 677.821,251.715 679.5,251.5C 682.661,252.913 685.661,254.58 688.5,256.5C 688.821,258.048 689.821,258.715 691.5,258.5C 693.062,258.733 694.395,259.4 695.5,260.5C 695.821,262.048 696.821,262.715 698.5,262.5C 701.661,263.913 704.661,265.58 707.5,267.5C 707.821,269.048 708.821,269.715 710.5,269.5C 711.833,270.167 713.167,270.833 714.5,271.5C 714.821,273.048 715.821,273.715 717.5,273.5C 720.661,274.913 723.661,276.58 726.5,278.5C 726.821,280.048 727.821,280.715 729.5,280.5C 732.661,281.913 735.661,283.58 738.5,285.5C 738.821,287.048 739.821,287.715 741.5,287.5C 743.062,287.733 744.395,288.4 745.5,289.5C 745.821,291.048 746.821,291.715 748.5,291.5C 751.661,292.913 754.661,294.58 757.5,296.5C 757.821,298.048 758.821,298.715 760.5,298.5C 761.833,299.167 763.167,299.833 764.5,300.5C 764.821,302.048 765.821,302.715 767.5,302.5C 770.661,303.913 773.661,305.58 776.5,307.5C 776.821,309.048 777.821,309.715 779.5,309.5C 782.661,310.913 785.661,312.58 788.5,314.5C 788.821,316.048 789.821,316.715 791.5,316.5C 796.816,319.472 802.15,322.472 807.5,325.5C 807.821,327.048 808.821,327.715 810.5,327.5C 811.833,328.167 813.167,328.833 814.5,329.5C 814.821,331.048 815.821,331.715 817.5,331.5C 824.663,335.247 831.663,339.247 838.5,343.5C 838.821,345.048 839.821,345.715 841.5,345.5C 843.062,345.733 844.395,346.4 845.5,347.5C 845.821,349.048 846.821,349.715 848.5,349.5C 853.09,351.762 857.09,354.762 860.5,358.5C 861.08,360.749 862.413,362.415 864.5,363.5C 867.277,365.951 869.277,368.951 870.5,372.5C 870.427,374.027 871.094,375.027 872.5,375.5C 873.73,377.297 874.396,379.297 874.5,381.5C 874.41,384.152 875.076,386.485 876.5,388.5C 877.663,467.43 877.83,546.43 877,625.5C 874.019,642.638 865.186,655.805 850.5,665C 787.5,701.333 724.5,737.667 661.5,774C 642.942,781.994 624.942,781.16 607.5,771.5C 607.027,770.094 606.027,769.427 604.5,769.5C 601.24,768.226 598.24,766.56 595.5,764.5C 595.027,763.094 594.027,762.427 592.5,762.5C 590.847,762.34 589.514,761.674 588.5,760.5C 588.027,759.094 587.027,758.427 585.5,758.5C 584.508,758.672 583.842,758.338 583.5,757.5C 583.027,756.094 582.027,755.427 580.5,755.5C 578.847,755.34 577.514,754.674 576.5,753.5C 576.027,752.094 575.027,751.427 573.5,751.5C 570.24,750.226 567.24,748.56 564.5,746.5C 564.027,745.094 563.027,744.427 561.5,744.5C 559.847,744.34 558.514,743.674 557.5,742.5C 557.027,741.094 556.027,740.427 554.5,740.5C 551.24,739.226 548.24,737.56 545.5,735.5C 545.027,734.094 544.027,733.427 542.5,733.5C 540.847,733.34 539.514,732.674 538.5,731.5C 538.027,730.094 537.027,729.427 535.5,729.5C 534.508,729.672 533.842,729.338 533.5,728.5C 533.027,727.094 532.027,726.427 530.5,726.5C 528.847,726.34 527.514,725.674 526.5,724.5C 526.027,723.094 525.027,722.427 523.5,722.5C 520.24,721.226 517.24,719.56 514.5,717.5C 514.027,716.094 513.027,715.427 511.5,715.5C 509.847,715.34 508.514,714.674 507.5,713.5C 507.027,712.094 506.027,711.427 504.5,711.5C 501.24,710.226 498.24,708.56 495.5,706.5C 495.027,705.094 494.027,704.427 492.5,704.5C 490.847,704.34 489.514,703.674 488.5,702.5C 488.027,701.094 487.027,700.427 485.5,700.5C 484.508,700.672 483.842,700.338 483.5,699.5C 483.027,698.094 482.027,697.427 480.5,697.5C 478.847,697.34 477.514,696.674 476.5,695.5C 476.027,694.094 475.027,693.427 473.5,693.5C 470.24,692.226 467.24,690.56 464.5,688.5C 464.027,687.094 463.027,686.427 461.5,686.5C 459.847,686.34 458.514,685.674 457.5,684.5C 457.027,683.094 456.027,682.427 454.5,682.5C 451.24,681.226 448.24,679.56 445.5,677.5C 445.027,676.094 444.027,675.427 442.5,675.5C 440.847,675.34 439.514,674.674 438.5,673.5C 438.027,672.094 437.027,671.427 435.5,671.5C 432.24,670.226 429.24,668.56 426.5,666.5C 426.027,665.094 425.027,664.427 423.5,664.5C 423.027,663.094 422.027,662.427 420.5,662.5C 418.251,661.92 416.585,660.587 415.5,658.5C 414.738,656.738 413.404,655.738 411.5,655.5C 411.573,653.973 410.906,652.973 409.5,652.5C 408.5,652.167 407.833,651.5 407.5,650.5C 407.446,648.368 406.446,647.035 404.5,646.5C 404.715,644.821 404.048,643.821 402.5,643.5C 398.897,637.69 396.897,631.357 396.5,624.5C 396.175,596.093 396.509,567.759 397.5,539.5C 398.514,538.326 399.847,537.66 401.5,537.5C 403.027,537.573 404.027,536.906 404.5,535.5C 405.514,534.326 406.847,533.66 408.5,533.5C 410.027,533.573 411.027,532.906 411.5,531.5C 411.842,530.662 412.508,530.328 413.5,530.5C 415.027,530.573 416.027,529.906 416.5,528.5C 417.514,527.326 418.847,526.66 420.5,526.5C 422.027,526.573 423.027,525.906 423.5,524.5C 424.514,523.326 425.847,522.66 427.5,522.5C 429.027,522.573 430.027,521.906 430.5,520.5C 433.24,518.44 436.24,516.774 439.5,515.5C 441.027,515.573 442.027,514.906 442.5,513.5C 443.514,512.326 444.847,511.66 446.5,511.5C 448.027,511.573 449.027,510.906 449.5,509.5C 452.24,507.44 455.24,505.774 458.5,504.5C 460.027,504.573 461.027,503.906 461.5,502.5C 462.514,501.326 463.847,500.66 465.5,500.5C 467.027,500.573 468.027,499.906 468.5,498.5C 469.514,497.326 470.847,496.66 472.5,496.5C 474.027,496.573 475.027,495.906 475.5,494.5C 475.842,493.662 476.508,493.328 477.5,493.5C 479.027,493.573 480.027,492.906 480.5,491.5C 482.164,516.984 483.164,542.65 483.5,568.5C 484.829,576.485 487.162,584.151 490.5,591.5C 490.427,593.027 491.094,594.027 492.5,594.5C 492.427,596.027 493.094,597.027 494.5,597.5C 495.5,597.833 496.167,598.5 496.5,599.5C 497.167,602.167 498.833,603.833 501.5,604.5C 504.167,606.5 506.833,608.5 509.5,610.5C 509.821,612.048 510.821,612.715 512.5,612.5C 513.833,613.167 515.167,613.833 516.5,614.5C 516.821,616.048 517.821,616.715 519.5,616.5C 522.661,617.913 525.661,619.58 528.5,621.5C 528.821,623.048 529.821,623.715 531.5,623.5C 534.661,624.913 537.661,626.58 540.5,628.5C 540.821,630.048 541.821,630.715 543.5,630.5C 546.661,631.913 549.661,633.58 552.5,635.5C 552.821,637.048 553.821,637.715 555.5,637.5C 560.833,640.5 566.167,643.5 571.5,646.5C 571.821,648.048 572.821,648.715 574.5,648.5C 577.661,649.913 580.661,651.58 583.5,653.5C 583.821,655.048 584.821,655.715 586.5,655.5C 589.661,656.913 592.661,658.58 595.5,660.5C 595.821,662.048 596.821,662.715 598.5,662.5C 600.062,662.733 601.395,663.4 602.5,664.5C 602.821,666.048 603.821,666.715 605.5,666.5C 625.669,678.052 646.002,678.386 666.5,667.5C 668.027,667.573 669.027,666.906 669.5,665.5C 669.842,664.662 670.508,664.328 671.5,664.5C 673.027,664.573 674.027,663.906 674.5,662.5C 674.842,661.662 675.508,661.328 676.5,661.5C 678.027,661.573 679.027,660.906 679.5,659.5C 683.833,656.331 688.5,653.664 693.5,651.5C 695.027,651.573 696.027,650.906 696.5,649.5C 696.842,648.662 697.508,648.328 698.5,648.5C 700.027,648.573 701.027,647.906 701.5,646.5C 701.842,645.662 702.508,645.328 703.5,645.5C 705.027,645.573 706.027,644.906 706.5,643.5C 706.842,642.662 707.508,642.328 708.5,642.5C 710.027,642.573 711.027,641.906 711.5,640.5C 711.842,639.662 712.508,639.328 713.5,639.5C 715.027,639.573 716.027,638.906 716.5,637.5C 716.842,636.662 717.508,636.328 718.5,636.5C 720.027,636.573 721.027,635.906 721.5,634.5C 724.24,632.44 727.24,630.774 730.5,629.5C 732.027,629.573 733.027,628.906 733.5,627.5C 733.842,626.662 734.508,626.328 735.5,626.5C 737.027,626.573 738.027,625.906 738.5,624.5C 738.842,623.662 739.508,623.328 740.5,623.5C 742.027,623.573 743.027,622.906 743.5,621.5C 743.842,620.662 744.508,620.328 745.5,620.5C 747.027,620.573 748.027,619.906 748.5,618.5C 748.842,617.662 749.508,617.328 750.5,617.5C 752.027,617.573 753.027,616.906 753.5,615.5C 755.663,613.917 757.996,612.584 760.5,611.5C 762.027,611.573 763.027,610.906 763.5,609.5C 765.404,609.262 766.738,608.262 767.5,606.5C 769.5,603.833 771.833,601.5 774.5,599.5C 776.262,598.738 777.262,597.404 777.5,595.5C 778.906,595.027 779.573,594.027 779.5,592.5C 783.095,585.214 785.595,577.547 787,569.5C 787.667,527.5 787.667,485.5 787,443.5C 785.746,431.667 781.246,421.333 773.5,412.5C 772.5,409.5 770.5,407.5 767.5,406.5C 766.5,406.167 765.833,405.5 765.5,404.5C 765.027,403.094 764.027,402.427 762.5,402.5C 762.027,401.094 761.027,400.427 759.5,400.5C 757.847,400.34 756.514,399.674 755.5,398.5C 755.027,397.094 754.027,396.427 752.5,396.5C 751.508,396.672 750.842,396.338 750.5,395.5C 750.027,394.094 749.027,393.427 747.5,393.5C 745.847,393.34 744.514,392.674 743.5,391.5C 743.027,390.094 742.027,389.427 740.5,389.5C 738.847,389.34 737.514,388.674 736.5,387.5C 736.027,386.094 735.027,385.427 733.5,385.5C 730.24,384.226 727.24,382.56 724.5,380.5C 724.027,379.094 723.027,378.427 721.5,378.5C 720.508,378.672 719.842,378.338 719.5,377.5C 719.027,376.094 718.027,375.427 716.5,375.5C 714.847,375.34 713.514,374.674 712.5,373.5C 712.027,372.094 711.027,371.427 709.5,371.5C 707.847,371.34 706.514,370.674 705.5,369.5C 705.027,368.094 704.027,367.427 702.5,367.5C 701.508,367.672 700.842,367.338 700.5,366.5C 700.027,365.094 699.027,364.427 697.5,364.5C 695.847,364.34 694.514,363.674 693.5,362.5C 693.027,361.094 692.027,360.427 690.5,360.5C 687.24,359.226 684.24,357.56 681.5,355.5C 681.027,354.094 680.027,353.427 678.5,353.5C 676.847,353.34 675.514,352.674 674.5,351.5C 674.027,350.094 673.027,349.427 671.5,349.5C 670.508,349.672 669.842,349.338 669.5,348.5C 669.027,347.094 668.027,346.427 666.5,346.5C 661.829,344.497 657.162,342.497 652.5,340.5C 651.01,338.72 649.01,338.054 646.5,338.5C 632.024,335.696 618.357,337.863 605.5,345C 491.997,411.252 378.33,477.252 264.5,543C 251.113,548.384 237.446,549.384 223.5,546C 219.771,545.156 216.437,543.656 213.5,541.5C 213.027,540.094 212.027,539.427 210.5,539.5C 208.847,539.34 207.514,538.674 206.5,537.5C 206.027,536.094 205.027,535.427 203.5,535.5C 200.24,534.226 197.24,532.56 194.5,530.5C 194.027,529.094 193.027,528.427 191.5,528.5C 189.847,528.34 188.514,527.674 187.5,526.5C 187.027,525.094 186.027,524.427 184.5,524.5C 181.24,523.226 178.24,521.56 175.5,519.5C 175.027,518.094 174.027,517.427 172.5,517.5C 170.847,517.34 169.514,516.674 168.5,515.5C 168.027,514.094 167.027,513.427 165.5,513.5C 164.508,513.672 163.842,513.338 163.5,512.5C 163.027,511.094 162.027,510.427 160.5,510.5C 158.847,510.34 157.514,509.674 156.5,508.5C 156.027,507.094 155.027,506.427 153.5,506.5C 150.24,505.226 147.24,503.56 144.5,501.5C 144.027,500.094 143.027,499.427 141.5,499.5C 139.847,499.34 138.514,498.674 137.5,497.5C 137.027,496.094 136.027,495.427 134.5,495.5C 131.24,494.226 128.24,492.56 125.5,490.5C 125.027,489.094 124.027,488.427 122.5,488.5C 120.847,488.34 119.514,487.674 118.5,486.5C 118.027,485.094 117.027,484.427 115.5,484.5C 114.508,484.672 113.842,484.338 113.5,483.5C 113.027,482.094 112.027,481.427 110.5,481.5C 108.847,481.34 107.514,480.674 106.5,479.5C 106.027,478.094 105.027,477.427 103.5,477.5C 100.24,476.226 97.2402,474.56 94.5,472.5C 94.0269,471.094 93.0269,470.427 91.5,470.5C 89.847,470.34 88.5137,469.674 87.5,468.5C 87.0269,467.094 86.0269,466.427 84.5,466.5C 81.2402,465.226 78.2402,463.56 75.5,461.5C 75.0269,460.094 74.0269,459.427 72.5,459.5C 70.847,459.34 69.5137,458.674 68.5,457.5C 68.0269,456.094 67.0269,455.427 65.5,455.5C 64.5084,455.672 63.8417,455.338 63.5,454.5C 63.0269,453.094 62.0269,452.427 60.5,452.5C 58.847,452.34 57.5137,451.674 56.5,450.5C 56.0269,449.094 55.0269,448.427 53.5,448.5C 51.847,448.34 50.5137,447.674 49.5,446.5C 49.0269,445.094 48.0269,444.427 46.5,444.5C 45.5084,444.672 44.8417,444.338 44.5,443.5C 44.0269,442.094 43.0269,441.427 41.5,441.5C 39.847,441.34 38.5137,440.674 37.5,439.5C 37.0269,438.094 36.0269,437.427 34.5,437.5C 31.6689,436.921 29.3356,435.588 27.5,433.5C 27.0269,432.094 26.0269,431.427 24.5,431.5C 22.5956,431.262 21.2623,430.262 20.5,428.5C 19.0892,426.086 17.0892,424.419 14.5,423.5C 6.87215,415.578 1.87215,406.244 -0.5,395.5C -0.5,316.5 -0.5,237.5 -0.5,158.5C 1.23082,151.038 4.56416,144.372 9.5,138.5C 10.9063,138.027 11.573,137.027 11.5,135.5C 11.8333,134.5 12.5,133.833 13.5,133.5C 16.0892,132.581 18.0892,130.914 19.5,128.5C 19.5,127.833 19.8333,127.5 20.5,127.5C 22.0269,127.573 23.0269,126.906 23.5,125.5C 24.5137,124.326 25.847,123.66 27.5,123.5C 29.0269,123.573 30.0269,122.906 30.5,121.5C 31.5137,120.326 32.847,119.66 34.5,119.5C 36.0269,119.573 37.0269,118.906 37.5,117.5C 37.8417,116.662 38.5084,116.328 39.5,116.5C 41.0269,116.573 42.0269,115.906 42.5,114.5C 42.8417,113.662 43.5084,113.328 44.5,113.5C 46.0269,113.573 47.0269,112.906 47.5,111.5C 48.5137,110.326 49.847,109.66 51.5,109.5C 53.0269,109.573 54.0269,108.906 54.5,107.5C 54.8417,106.662 55.5084,106.328 56.5,106.5C 58.0269,106.573 59.0269,105.906 59.5,104.5C 60.5137,103.326 61.847,102.66 63.5,102.5C 65.0269,102.573 66.0269,101.906 66.5,100.5C 66.8417,99.6618 67.5084,99.3284 68.5,99.5C 70.0269,99.573 71.0269,98.9063 71.5,97.5C 72.5137,96.3263 73.847,95.6596 75.5,95.5C 77.0269,95.573 78.0269,94.9063 78.5,93.5C 78.8417,92.6618 79.5084,92.3284 80.5,92.5C 82.0269,92.573 83.0269,91.9063 83.5,90.5C 84.5137,89.3263 85.847,88.6596 87.5,88.5C 89.0269,88.573 90.0269,87.9063 90.5,86.5C 90.8417,85.6618 91.5084,85.3284 92.5,85.5C 94.0269,85.573 95.0269,84.9063 95.5,83.5C 98.2402,81.4405 101.24,79.7738 104.5,78.5C 106.027,78.573 107.027,77.9063 107.5,76.5C 107.842,75.6618 108.508,75.3284 109.5,75.5C 111.027,75.573 112.027,74.9063 112.5,73.5C 113.514,72.3263 114.847,71.6596 116.5,71.5C 118.027,71.573 119.027,70.9063 119.5,69.5C 119.842,68.6618 120.508,68.3284 121.5,68.5C 123.027,68.573 124.027,67.9063 124.5,66.5C 125.514,65.3263 126.847,64.6596 128.5,64.5C 130.027,64.573 131.027,63.9063 131.5,62.5C 131.842,61.6618 132.508,61.3284 133.5,61.5C 135.027,61.573 136.027,60.9063 136.5,59.5C 139.24,57.4405 142.24,55.7738 145.5,54.5C 147.027,54.573 148.027,53.9063 148.5,52.5C 148.842,51.6618 149.508,51.3284 150.5,51.5C 152.027,51.573 153.027,50.9063 153.5,49.5C 154.514,48.3263 155.847,47.6596 157.5,47.5C 159.027,47.573 160.027,46.9063 160.5,45.5C 160.842,44.6618 161.508,44.3284 162.5,44.5C 164.027,44.573 165.027,43.9063 165.5,42.5C 166.514,41.3263 167.847,40.6596 169.5,40.5C 171.027,40.573 172.027,39.9063 172.5,38.5C 172.842,37.6618 173.508,37.3284 174.5,37.5C 176.027,37.573 177.027,36.9063 177.5,35.5C 178.514,34.3263 179.847,33.6596 181.5,33.5C 183.027,33.573 184.027,32.9063 184.5,31.5C 184.842,30.6618 185.508,30.3284 186.5,30.5C 188.027,30.573 189.027,29.9063 189.5,28.5C 192.24,26.4405 195.24,24.7738 198.5,23.5C 200.027,23.573 201.027,22.9063 201.5,21.5C 201.842,20.6618 202.508,20.3284 203.5,20.5C 205.027,20.573 206.027,19.9063 206.5,18.5C 207.514,17.3263 208.847,16.6596 210.5,16.5C 212.027,16.573 213.027,15.9063 213.5,14.5C 215.181,12.9925 217.181,11.9925 219.5,11.5C 223.162,11.2766 226.495,10.2766 229.5,8.5C 242.887,5.06246 255.887,6.3958 268.5,12.5 Z"/></g>
<g><path style="opacity:0.933" fill="#6e6e6e" d="M 229.5,8.5 C 226.495,10.2766 223.162,11.2766 219.5,11.5C 222.505,9.7234 225.838,8.7234 229.5,8.5 Z"/></g>
<g><path style="opacity:0.969" fill="#797979" d="M 268.5,12.5 C 269.71,12.9321 270.71,13.5987 271.5,14.5C 269.821,14.7148 268.821,14.0481 268.5,12.5 Z"/></g>
<g><path style="opacity:0.839" fill="#808080" d="M 213.5,14.5 C 213.027,15.9063 212.027,16.573 210.5,16.5C 210.973,15.0937 211.973,14.427 213.5,14.5 Z"/></g>
<g><path style="opacity:0.937" fill="#848484" d="M 275.5,16.5 C 276.71,16.9321 277.71,17.5987 278.5,18.5C 276.821,18.7148 275.821,18.0481 275.5,16.5 Z"/></g>
<g><path style="opacity:0.773" fill="#909090" d="M 206.5,18.5 C 206.027,19.9063 205.027,20.573 203.5,20.5C 203.973,19.0937 204.973,18.427 206.5,18.5 Z"/></g>
<g><path style="opacity:0.965" fill="#7a7a7a" d="M 280.5,19.5 C 281.71,19.9321 282.71,20.5987 283.5,21.5C 281.821,21.7148 280.821,21.0481 280.5,19.5 Z"/></g>
<g><path style="opacity:0.831" fill="#818181" d="M 201.5,21.5 C 201.027,22.9063 200.027,23.573 198.5,23.5C 198.973,22.0937 199.973,21.427 201.5,21.5 Z"/></g>
<g><path style="opacity:0.957" fill="#7e7e7e" d="M 292.5,26.5 C 293.71,26.9321 294.71,27.5987 295.5,28.5C 293.821,28.7148 292.821,28.0481 292.5,26.5 Z"/></g>
<g><path style="opacity:0.824" fill="#858585" d="M 189.5,28.5 C 189.027,29.9063 188.027,30.573 186.5,30.5C 186.973,29.0937 187.973,28.427 189.5,28.5 Z"/></g>
<g><path style="opacity:0.875" fill="#787878" d="M 184.5,31.5 C 184.027,32.9063 183.027,33.573 181.5,33.5C 181.973,32.0937 182.973,31.427 184.5,31.5 Z"/></g>
<g><path style="opacity:0.933" fill="#868686" d="M 304.5,33.5 C 305.71,33.9321 306.71,34.5987 307.5,35.5C 305.821,35.7148 304.821,35.0481 304.5,33.5 Z"/></g>
<g><path style="opacity:0.788" fill="#8d8d8d" d="M 177.5,35.5 C 177.027,36.9063 176.027,37.573 174.5,37.5C 174.973,36.0937 175.973,35.427 177.5,35.5 Z"/></g>
<g><path style="opacity:0.961" fill="#7d7d7d" d="M 309.5,36.5 C 310.71,36.9321 311.71,37.5987 312.5,38.5C 310.821,38.7148 309.821,38.0481 309.5,36.5 Z"/></g>
<g><path style="opacity:0.867" fill="#7a7a7a" d="M 172.5,38.5 C 172.027,39.9063 171.027,40.573 169.5,40.5C 169.973,39.0937 170.973,38.427 172.5,38.5 Z"/></g>
<g><path style="opacity:0.776" fill="#8f8f8f" d="M 165.5,42.5 C 165.027,43.9063 164.027,44.573 162.5,44.5C 162.973,43.0937 163.973,42.427 165.5,42.5 Z"/></g>
<g><path style="opacity:0.937" fill="#858585" d="M 321.5,43.5 C 322.71,43.9321 323.71,44.5987 324.5,45.5C 322.821,45.7148 321.821,45.0481 321.5,43.5 Z"/></g>
<g><path style="opacity:0.835" fill="#818181" d="M 160.5,45.5 C 160.027,46.9063 159.027,47.573 157.5,47.5C 157.973,46.0937 158.973,45.427 160.5,45.5 Z"/></g>
<g><path style="opacity:0.961" fill="#7d7d7d" d="M 326.5,46.5 C 327.71,46.9321 328.71,47.5987 329.5,48.5C 327.821,48.7148 326.821,48.0481 326.5,46.5 Z"/></g>
<g><path style="opacity:0.769" fill="#939393" d="M 153.5,49.5 C 153.027,50.9063 152.027,51.573 150.5,51.5C 150.973,50.0937 151.973,49.427 153.5,49.5 Z"/></g>
<g><path style="opacity:0.827" fill="#828282" d="M 148.5,52.5 C 148.027,53.9063 147.027,54.573 145.5,54.5C 145.973,53.0937 146.973,52.427 148.5,52.5 Z"/></g>
<g><path style="opacity:0.953" fill="#808080" d="M 338.5,53.5 C 339.71,53.9321 340.71,54.5987 341.5,55.5C 339.821,55.7148 338.821,55.0481 338.5,53.5 Z"/></g>
<g><path style="opacity:0.965" fill="#7a7a7a" d="M 343.5,56.5 C 344.71,56.9321 345.71,57.5987 346.5,58.5C 344.821,58.7148 343.821,58.0481 343.5,56.5 Z"/></g>
<g><path style="opacity:0.82" fill="#878787" d="M 136.5,59.5 C 136.027,60.9063 135.027,61.573 133.5,61.5C 133.973,60.0937 134.973,59.427 136.5,59.5 Z"/></g>
<g><path style="opacity:0.871" fill="#787878" d="M 131.5,62.5 C 131.027,63.9063 130.027,64.573 128.5,64.5C 128.973,63.0937 129.973,62.427 131.5,62.5 Z"/></g>
<g><path style="opacity:0.957" fill="#7e7e7e" d="M 355.5,63.5 C 356.71,63.9321 357.71,64.5987 358.5,65.5C 356.821,65.7148 355.821,65.0481 355.5,63.5 Z"/></g>
<g><path style="opacity:0.78" fill="#8f8f8f" d="M 124.5,66.5 C 124.027,67.9063 123.027,68.573 121.5,68.5C 121.973,67.0937 122.973,66.427 124.5,66.5 Z"/></g>
<g><path style="opacity:0.839" fill="#808080" d="M 119.5,69.5 C 119.027,70.9063 118.027,71.573 116.5,71.5C 116.973,70.0937 117.973,69.427 119.5,69.5 Z"/></g>
<g><path style="opacity:0.933" fill="#868686" d="M 367.5,70.5 C 368.71,70.9321 369.71,71.5987 370.5,72.5C 368.821,72.7148 367.821,72.0481 367.5,70.5 Z"/></g>
<g><path style="opacity:0.773" fill="#909090" d="M 112.5,73.5 C 112.027,74.9063 111.027,75.573 109.5,75.5C 109.973,74.0937 110.973,73.427 112.5,73.5 Z"/></g>
<g><path style="opacity:0.961" fill="#7d7d7d" d="M 372.5,73.5 C 373.71,73.9321 374.71,74.5987 375.5,75.5C 373.821,75.7148 372.821,75.0481 372.5,73.5 Z"/></g>
<g><path style="opacity:0.831" fill="#818181" d="M 107.5,76.5 C 107.027,77.9063 106.027,78.573 104.5,78.5C 104.973,77.0937 105.973,76.427 107.5,76.5 Z"/></g>
<g><path style="opacity:0.937" fill="#858585" d="M 384.5,80.5 C 385.71,80.9321 386.71,81.5987 387.5,82.5C 385.821,82.7148 384.821,82.0481 384.5,80.5 Z"/></g>
<g><path style="opacity:0.824" fill="#858585" d="M 95.5,83.5 C 95.0269,84.9063 94.0269,85.573 92.5,85.5C 92.9731,84.0937 93.9731,83.427 95.5,83.5 Z"/></g>
<g><path style="opacity:0.965" fill="#7c7c7c" d="M 389.5,83.5 C 390.71,83.9321 391.71,84.5987 392.5,85.5C 390.821,85.7148 389.821,85.0481 389.5,83.5 Z"/></g>
<g><path style="opacity:0.875" fill="#787878" d="M 90.5,86.5 C 90.0269,87.9063 89.0269,88.573 87.5,88.5C 87.9731,87.0937 88.9731,86.427 90.5,86.5 Z"/></g>
<g><path style="opacity:0.788" fill="#8d8d8d" d="M 83.5,90.5 C 83.0269,91.9063 82.0269,92.573 80.5,92.5C 80.9731,91.0937 81.9731,90.427 83.5,90.5 Z"/></g>
<g><path style="opacity:0.957" fill="#7f7f7f" d="M 401.5,90.5 C 402.71,90.9321 403.71,91.5987 404.5,92.5C 402.821,92.7148 401.821,92.0481 401.5,90.5 Z"/></g>
<g><path style="opacity:0.867" fill="#7a7a7a" d="M 78.5,93.5 C 78.0269,94.9063 77.0269,95.573 75.5,95.5C 75.9731,94.0937 76.9731,93.427 78.5,93.5 Z"/></g>
<g><path style="opacity:0.776" fill="#8f8f8f" d="M 71.5,97.5 C 71.0269,98.9063 70.0269,99.573 68.5,99.5C 68.9731,98.0937 69.9731,97.427 71.5,97.5 Z"/></g>
<g><path style="opacity:0.835" fill="#818181" d="M 66.5,100.5 C 66.0269,101.906 65.0269,102.573 63.5,102.5C 63.9731,101.094 64.9731,100.427 66.5,100.5 Z"/></g>
<g><path style="opacity:0.957" fill="#7e7e7e" d="M 418.5,100.5 C 419.71,100.932 420.71,101.599 421.5,102.5C 419.821,102.715 418.821,102.048 418.5,100.5 Z"/></g>
<g><path style="opacity:0.769" fill="#939393" d="M 59.5,104.5 C 59.0269,105.906 58.0269,106.573 56.5,106.5C 56.9731,105.094 57.9731,104.427 59.5,104.5 Z"/></g>
<g><path style="opacity:0.839" fill="#808080" d="M 54.5,107.5 C 54.0269,108.906 53.0269,109.573 51.5,109.5C 51.9731,108.094 52.9731,107.427 54.5,107.5 Z"/></g>
<g><path style="opacity:0.957" fill="#7f7f7f" d="M 435.5,110.5 C 436.71,110.932 437.71,111.599 438.5,112.5C 436.821,112.715 435.821,112.048 435.5,110.5 Z"/></g>
<g><path style="opacity:0.757" fill="#949494" d="M 47.5,111.5 C 47.0269,112.906 46.0269,113.573 44.5,113.5C 44.9731,112.094 45.9731,111.427 47.5,111.5 Z"/></g>
<g><path style="opacity:0.82" fill="#858585" d="M 42.5,114.5 C 42.0269,115.906 41.0269,116.573 39.5,116.5C 39.9731,115.094 40.9731,114.427 42.5,114.5 Z"/></g>
<g><path style="opacity:0.435" fill="#a0a0a0" d="M 270.5,116.5 C 272.027,116.427 273.027,117.094 273.5,118.5C 271.973,118.573 270.973,117.906 270.5,116.5 Z"/></g>
<g><path style="opacity:0.871" fill="#787878" d="M 37.5,117.5 C 37.0269,118.906 36.0269,119.573 34.5,119.5C 34.9731,118.094 35.9731,117.427 37.5,117.5 Z"/></g>
<g><path style="opacity:0.937" fill="#848484" d="M 447.5,117.5 C 448.71,117.932 449.71,118.599 450.5,119.5C 448.821,119.715 447.821,119.048 447.5,117.5 Z"/></g>
<g><path style="opacity:0.435" fill="#9f9f9f" d="M 275.5,119.5 C 277.027,119.427 278.027,120.094 278.5,121.5C 276.973,121.573 275.973,120.906 275.5,119.5 Z"/></g>
<g><path style="opacity:0.961" fill="#858585" d="M 452.5,120.5 C 454.23,121.026 455.564,122.026 456.5,123.5C 454.368,123.446 453.035,122.446 452.5,120.5 Z"/></g>
<g><path style="opacity:0.784" fill="#8d8d8d" d="M 30.5,121.5 C 30.0269,122.906 29.0269,123.573 27.5,123.5C 27.9731,122.094 28.9731,121.427 30.5,121.5 Z"/></g>
<g><path style="opacity:0.482" fill="#9a9a9a" d="M 280.5,122.5 C 282.027,122.427 283.027,123.094 283.5,124.5C 281.973,124.573 280.973,123.906 280.5,122.5 Z"/></g>
<g><path style="opacity:0.733" fill="#979797" d="M 23.5,125.5 C 23.0269,126.906 22.0269,127.573 20.5,127.5C 20.9731,126.094 21.9731,125.427 23.5,125.5 Z"/></g>
<g><path style="opacity:0.502" fill="#939393" d="M 285.5,125.5 C 287.027,125.427 288.027,126.094 288.5,127.5C 286.973,127.573 285.973,126.906 285.5,125.5 Z"/></g>
<g><path style="opacity:0.529" fill="#8e8e8e" d="M 290.5,128.5 C 292.027,128.427 293.027,129.094 293.5,130.5C 291.973,130.573 290.973,129.906 290.5,128.5 Z"/></g>
<g><path style="opacity:0.941" fill="#5e5e5e" d="M 19.5,128.5 C 18.0892,130.914 16.0892,132.581 13.5,133.5C 14.9108,131.086 16.9108,129.419 19.5,128.5 Z"/></g>
<g><path style="opacity:0.365" fill="#aeaeae" d="M 298.5,133.5 C 300.027,133.427 301.027,134.094 301.5,135.5C 299.973,135.573 298.973,134.906 298.5,133.5 Z"/></g>
<g><path style="opacity:0.875" fill="#878787" d="M 467.5,133.5 C 469.262,134.262 470.262,135.596 470.5,137.5C 468.738,136.738 467.738,135.404 467.5,133.5 Z"/></g>
<g><path style="opacity:0.78" fill="#929292" d="M 11.5,135.5 C 11.573,137.027 10.9063,138.027 9.5,138.5C 9.42702,136.973 10.0937,135.973 11.5,135.5 Z"/></g>
<g><path style="opacity:0.384" fill="#aaaaaa" d="M 303.5,136.5 C 305.027,136.427 306.027,137.094 306.5,138.5C 304.973,138.573 303.973,137.906 303.5,136.5 Z"/></g>
<g><path style="opacity:0.557" fill="#8f8f8f" d="M 470.5,137.5 C 471.906,137.973 472.573,138.973 472.5,140.5C 471.094,140.027 470.427,139.027 470.5,137.5 Z"/></g>
<g><path style="opacity:0.369" fill="#aaaaaa" d="M 308.5,139.5 C 310.027,139.427 311.027,140.094 311.5,141.5C 309.973,141.573 308.973,140.906 308.5,139.5 Z"/></g>
<g><path style="opacity:0.341" fill="#b0b0b0" d="M 472.5,140.5 C 473.906,140.973 474.573,141.973 474.5,143.5C 473.094,143.027 472.427,142.027 472.5,140.5 Z"/></g>
<g><path style="opacity:0.369" fill="#a8a8a8" d="M 313.5,142.5 C 315.027,142.427 316.027,143.094 316.5,144.5C 314.973,144.573 313.973,143.906 313.5,142.5 Z"/></g>
<g><path style="opacity:0.435" fill="#a0a0a0" d="M 318.5,145.5 C 320.027,145.427 321.027,146.094 321.5,147.5C 319.973,147.573 318.973,146.906 318.5,145.5 Z"/></g>
<g><path style="opacity:0.435" fill="#9e9e9e" d="M 323.5,148.5 C 325.027,148.427 326.027,149.094 326.5,150.5C 324.973,150.573 323.973,149.906 323.5,148.5 Z"/></g>
<g><path style="opacity:0.494" fill="#979797" d="M 328.5,151.5 C 330.027,151.427 331.027,152.094 331.5,153.5C 329.973,153.573 328.973,152.906 328.5,151.5 Z"/></g>
<g><path style="opacity:0.929" fill="#7c7c7c" d="M 477.5,150.5 C 478.924,152.515 479.59,154.848 479.5,157.5C 478.076,155.485 477.41,153.152 477.5,150.5 Z"/></g>
<g><path style="opacity:0.518" fill="#919191" d="M 333.5,154.5 C 335.027,154.427 336.027,155.094 336.5,156.5C 334.973,156.573 333.973,155.906 333.5,154.5 Z"/></g>
<g><path style="opacity:0.537" fill="#8e8e8e" d="M 338.5,157.5 C 340.027,157.427 341.027,158.094 341.5,159.5C 339.973,159.573 338.973,158.906 338.5,157.5 Z"/></g>
<g><path style="opacity:0.369" fill="#adadad" d="M 346.5,162.5 C 348.027,162.427 349.027,163.094 349.5,164.5C 347.973,164.573 346.973,163.906 346.5,162.5 Z"/></g>
<g><path style="opacity:0.369" fill="#ababab" d="M 351.5,165.5 C 353.027,165.427 354.027,166.094 354.5,167.5C 352.973,167.573 351.973,166.906 351.5,165.5 Z"/></g>
<g><path style="opacity:0.42" fill="#a6a6a6" d="M 356.5,168.5 C 358.027,168.427 359.027,169.094 359.5,170.5C 357.973,170.573 356.973,169.906 356.5,168.5 Z"/></g>
<g><path style="opacity:0.251" fill="#cccccc" d="M 480.5,164.5 C 481.167,178.329 481.5,192.329 481.5,206.5C 481.499,220.85 480.833,234.85 479.5,248.5C 480.491,220.574 480.824,192.574 480.5,164.5 Z"/></g>
<g><path style="opacity:0.435" fill="#a0a0a0" d="M 361.5,171.5 C 363.027,171.427 364.027,172.094 364.5,173.5C 362.973,173.573 361.973,172.906 361.5,171.5 Z"/></g>
<g><path style="opacity:0.502" fill="#979797" d="M 366.5,174.5 C 368.027,174.427 369.027,175.094 369.5,176.5C 367.973,176.573 366.973,175.906 366.5,174.5 Z"/></g>
<g><path style="opacity:0.647" fill="#848484" d="M 369.5,176.5 C 371.027,176.427 372.027,177.094 372.5,178.5C 370.973,178.573 369.973,177.906 369.5,176.5 Z"/></g>
<g><path style="opacity:0.831" fill="#3d3d3d" d="M 393.5,219.5 C 393.836,245.35 394.836,271.016 396.5,296.5C 395.828,297.267 394.995,297.934 394,298.5C 393.5,272.169 393.333,245.835 393.5,219.5 Z"/></g>
<g><path style="opacity:0.867" fill="#787878" d="M 609.5,242.5 C 609.027,243.906 608.027,244.573 606.5,244.5C 606.973,243.094 607.973,242.427 609.5,242.5 Z"/></g>
<g><path style="opacity:0.769" fill="#939393" d="M 602.5,246.5 C 602.027,247.906 601.027,248.573 599.5,248.5C 599.973,247.094 600.973,246.427 602.5,246.5 Z"/></g>
<g><path style="opacity:0.816" fill="#888888" d="M 597.5,249.5 C 597.027,250.906 596.027,251.573 594.5,251.5C 594.973,250.094 595.973,249.427 597.5,249.5 Z"/></g>
<g><path style="opacity:0.957" fill="#7e7e7e" d="M 676.5,249.5 C 677.71,249.932 678.71,250.599 679.5,251.5C 677.821,251.715 676.821,251.048 676.5,249.5 Z"/></g>
<g><path style="opacity:0.839" fill="#808080" d="M 592.5,252.5 C 592.027,253.906 591.027,254.573 589.5,254.5C 589.973,253.094 590.973,252.427 592.5,252.5 Z"/></g>
<g><path style="opacity:0.965" fill="#7a7a7a" d="M 688.5,256.5 C 689.71,256.932 690.71,257.599 691.5,258.5C 689.821,258.715 688.821,258.048 688.5,256.5 Z"/></g>
<g><path style="opacity:0.784" fill="#8e8e8e" d="M 580.5,259.5 C 580.027,260.906 579.027,261.573 577.5,261.5C 577.973,260.094 578.973,259.427 580.5,259.5 Z"/></g>
<g><path style="opacity:0.953" fill="#808080" d="M 695.5,260.5 C 696.71,260.932 697.71,261.599 698.5,262.5C 696.821,262.715 695.821,262.048 695.5,260.5 Z"/></g>
<g><path style="opacity:0.831" fill="#818181" d="M 575.5,262.5 C 575.027,263.906 574.027,264.573 572.5,264.5C 572.973,263.094 573.973,262.427 575.5,262.5 Z"/></g>
<g><path style="opacity:0.961" fill="#7d7d7d" d="M 707.5,267.5 C 708.71,267.932 709.71,268.599 710.5,269.5C 708.821,269.715 707.821,269.048 707.5,267.5 Z"/></g>
<g><path style="opacity:0.776" fill="#8f8f8f" d="M 563.5,269.5 C 563.027,270.906 562.027,271.573 560.5,271.5C 560.973,270.094 561.973,269.427 563.5,269.5 Z"/></g>
<g><path style="opacity:0.933" fill="#848484" d="M 714.5,271.5 C 715.71,271.932 716.71,272.599 717.5,273.5C 715.821,273.715 714.821,273.048 714.5,271.5 Z"/></g>
<g><path style="opacity:0.827" fill="#838383" d="M 558.5,272.5 C 558.027,273.906 557.027,274.573 555.5,274.5C 555.973,273.094 556.973,272.427 558.5,272.5 Z"/></g>
<g><path style="opacity:0.871" fill="#787878" d="M 553.5,275.5 C 553.027,276.906 552.027,277.573 550.5,277.5C 550.973,276.094 551.973,275.427 553.5,275.5 Z"/></g>
<g><path style="opacity:0.957" fill="#7e7e7e" d="M 726.5,278.5 C 727.71,278.932 728.71,279.599 729.5,280.5C 727.821,280.715 726.821,280.048 726.5,278.5 Z"/></g>
<g><path style="opacity:0.773" fill="#909090" d="M 546.5,279.5 C 546.027,280.906 545.027,281.573 543.5,281.5C 543.973,280.094 544.973,279.427 546.5,279.5 Z"/></g>
<g><path style="opacity:0.824" fill="#858585" d="M 541.5,282.5 C 541.027,283.906 540.027,284.573 538.5,284.5C 538.973,283.094 539.973,282.427 541.5,282.5 Z"/></g>
<g><path style="opacity:0.867" fill="#7a7a7a" d="M 536.5,285.5 C 536.027,286.906 535.027,287.573 533.5,287.5C 533.973,286.094 534.973,285.427 536.5,285.5 Z"/></g>
<g><path style="opacity:0.965" fill="#7a7a7a" d="M 738.5,285.5 C 739.71,285.932 740.71,286.599 741.5,287.5C 739.821,287.715 738.821,287.048 738.5,285.5 Z"/></g>
<g><path style="opacity:0.765" fill="#939393" d="M 529.5,289.5 C 529.027,290.906 528.027,291.573 526.5,291.5C 526.973,290.094 527.973,289.427 529.5,289.5 Z"/></g>
<g><path style="opacity:0.953" fill="#808080" d="M 745.5,289.5 C 746.71,289.932 747.71,290.599 748.5,291.5C 746.821,291.715 745.821,291.048 745.5,289.5 Z"/></g>
<g><path style="opacity:0.816" fill="#888888" d="M 524.5,292.5 C 524.027,293.906 523.027,294.573 521.5,294.5C 521.973,293.094 522.973,292.427 524.5,292.5 Z"/></g>
<g><path style="opacity:0.839" fill="#808080" d="M 519.5,295.5 C 519.027,296.906 518.027,297.573 516.5,297.5C 516.973,296.094 517.973,295.427 519.5,295.5 Z"/></g>
<g><path style="opacity:0.957" fill="#7e7e7e" d="M 757.5,296.5 C 758.71,296.932 759.71,297.599 760.5,298.5C 758.821,298.715 757.821,298.048 757.5,296.5 Z"/></g>
<g><path style="opacity:0.933" fill="#848484" d="M 764.5,300.5 C 765.71,300.932 766.71,301.599 767.5,302.5C 765.821,302.715 764.821,302.048 764.5,300.5 Z"/></g>
<g><path style="opacity:0.784" fill="#8e8e8e" d="M 507.5,302.5 C 507.027,303.906 506.027,304.573 504.5,304.5C 504.973,303.094 505.973,302.427 507.5,302.5 Z"/></g>
<g><path style="opacity:0.831" fill="#818181" d="M 502.5,305.5 C 502.027,306.906 501.027,307.573 499.5,307.5C 499.973,306.094 500.973,305.427 502.5,305.5 Z"/></g>
<g><path style="opacity:0.957" fill="#7e7e7e" d="M 776.5,307.5 C 777.71,307.932 778.71,308.599 779.5,309.5C 777.821,309.715 776.821,309.048 776.5,307.5 Z"/></g>
<g><path style="opacity:0.78" fill="#8f8f8f" d="M 490.5,312.5 C 490.027,313.906 489.027,314.573 487.5,314.5C 487.973,313.094 488.973,312.427 490.5,312.5 Z"/></g>
<g><path style="opacity:0.965" fill="#7a7a7a" d="M 788.5,314.5 C 789.71,314.932 790.71,315.599 791.5,316.5C 789.821,316.715 788.821,316.048 788.5,314.5 Z"/></g>
<g><path style="opacity:0.827" fill="#838383" d="M 485.5,315.5 C 485.027,316.906 484.027,317.573 482.5,317.5C 482.973,316.094 483.973,315.427 485.5,315.5 Z"/></g>
<g><path style="opacity:0.831" fill="#838383" d="M 478.5,319.5 C 478.027,320.906 477.027,321.573 475.5,321.5C 475.973,320.094 476.973,319.427 478.5,319.5 Z"/></g>
<g><path style="opacity:0.769" fill="#929292" d="M 467.5,325.5 C 467.027,326.906 466.027,327.573 464.5,327.5C 464.973,326.094 465.973,325.427 467.5,325.5 Z"/></g>
<g><path style="opacity:0.961" fill="#7d7d7d" d="M 807.5,325.5 C 808.71,325.932 809.71,326.599 810.5,327.5C 808.821,327.715 807.821,327.048 807.5,325.5 Z"/></g>
<g><path style="opacity:0.933" fill="#848484" d="M 814.5,329.5 C 815.71,329.932 816.71,330.599 817.5,331.5C 815.821,331.715 814.821,331.048 814.5,329.5 Z"/></g>
<g><path style="opacity:0.812" fill="#898989" d="M 458.5,330.5 C 458.027,331.906 457.027,332.573 455.5,332.5C 455.973,331.094 456.973,330.427 458.5,330.5 Z"/></g>
<g><path style="opacity:0.839" fill="#828282" d="M 449.5,335.5 C 449.027,336.906 448.027,337.573 446.5,337.5C 446.973,336.094 447.973,335.427 449.5,335.5 Z"/></g>
<g><path style="opacity:0.957" fill="#7c7c7c" d="M 646.5,338.5 C 649.01,338.054 651.01,338.72 652.5,340.5C 650.302,340.125 648.302,339.458 646.5,338.5 Z"/></g>
<g><path style="opacity:0.761" fill="#939393" d="M 438.5,341.5 C 438.027,342.906 437.027,343.573 435.5,343.5C 435.973,342.094 436.973,341.427 438.5,341.5 Z"/></g>
<g><path style="opacity:0.965" fill="#7a7a7a" d="M 838.5,343.5 C 839.71,343.932 840.71,344.599 841.5,345.5C 839.821,345.715 838.821,345.048 838.5,343.5 Z"/></g>
<g><path style="opacity:0.773" fill="#919191" d="M 429.5,346.5 C 429.027,347.906 428.027,348.573 426.5,348.5C 426.973,347.094 427.973,346.427 429.5,346.5 Z"/></g>
<g><path style="opacity:0.4" fill="#a3a3a3" d="M 666.5,346.5 C 668.027,346.427 669.027,347.094 669.5,348.5C 667.973,348.573 666.973,347.906 666.5,346.5 Z"/></g>
<g><path style="opacity:0.969" fill="#757575" d="M 87.5,344.5 C 88.6118,346.599 89.2785,348.933 89.5,351.5C 87.8372,349.562 87.1706,347.228 87.5,344.5 Z"/></g>
<g><path style="opacity:0.953" fill="#808080" d="M 845.5,347.5 C 846.71,347.932 847.71,348.599 848.5,349.5C 846.821,349.715 845.821,349.048 845.5,347.5 Z"/></g>
<g><path style="opacity:0.345" fill="#afafaf" d="M 671.5,349.5 C 673.027,349.427 674.027,350.094 674.5,351.5C 672.973,351.573 671.973,350.906 671.5,349.5 Z"/></g>
<g><path style="opacity:0.827" fill="#868686" d="M 420.5,351.5 C 420.027,352.906 419.027,353.573 417.5,353.5C 417.973,352.094 418.973,351.427 420.5,351.5 Z"/></g>
<g><path style="opacity:0.416" fill="#a3a3a3" d="M 678.5,353.5 C 680.027,353.427 681.027,354.094 681.5,355.5C 679.973,355.573 678.973,354.906 678.5,353.5 Z"/></g>
<g><path style="opacity:0.847" fill="#7f7f7f" d="M 411.5,356.5 C 411.027,357.906 410.027,358.573 408.5,358.5C 408.973,357.094 409.973,356.427 411.5,356.5 Z"/></g>
<g><path style="opacity:0.78" fill="#9b9b9b" d="M 860.5,358.5 C 862.587,359.585 863.92,361.251 864.5,363.5C 862.413,362.415 861.08,360.749 860.5,358.5 Z"/></g>
<g><path style="opacity:0.31" fill="#b1b1b1" d="M 92.5,359.5 C 93.9063,359.973 94.573,360.973 94.5,362.5C 93.0937,362.027 92.427,361.027 92.5,359.5 Z"/></g>
<g><path style="opacity:0.369" fill="#acacac" d="M 690.5,360.5 C 692.027,360.427 693.027,361.094 693.5,362.5C 691.973,362.573 690.973,361.906 690.5,360.5 Z"/></g>
<g><path style="opacity:0.765" fill="#929292" d="M 400.5,362.5 C 400.027,363.906 399.027,364.573 397.5,364.5C 397.973,363.094 398.973,362.427 400.5,362.5 Z"/></g>
<g><path style="opacity:0.459" fill="#9c9c9c" d="M 697.5,364.5 C 699.027,364.427 700.027,365.094 700.5,366.5C 698.973,366.573 697.973,365.906 697.5,364.5 Z"/></g>
<g><path style="opacity:0.475" fill="#a3a3a3" d="M 95.5,364.5 C 96.9063,364.973 97.573,365.973 97.5,367.5C 96.0937,367.027 95.427,366.027 95.5,364.5 Z"/></g>
<g><path style="opacity:0.824" fill="#838383" d="M 393.5,366.5 C 393.027,367.906 392.027,368.573 390.5,368.5C 390.973,367.094 391.973,366.427 393.5,366.5 Z"/></g>
<g><path style="opacity:0.867" fill="#838383" d="M 97.5,367.5 C 99.2624,368.262 100.262,369.596 100.5,371.5C 98.7376,370.738 97.7376,369.404 97.5,367.5 Z"/></g>
<g><path style="opacity:0.361" fill="#aeaeae" d="M 702.5,367.5 C 704.027,367.427 705.027,368.094 705.5,369.5C 703.973,369.573 702.973,368.906 702.5,367.5 Z"/></g>
<g><path style="opacity:0.824" fill="#838383" d="M 388.5,369.5 C 388.027,370.906 387.027,371.573 385.5,371.5C 385.973,370.094 386.973,369.427 388.5,369.5 Z"/></g>
<g><path style="opacity:0.4" fill="#a3a3a3" d="M 709.5,371.5 C 711.027,371.427 712.027,372.094 712.5,373.5C 710.973,373.573 709.973,372.906 709.5,371.5 Z"/></g>
<g><path style="opacity:0.827" fill="#838383" d="M 383.5,372.5 C 383.027,373.906 382.027,374.573 380.5,374.5C 380.973,373.094 381.973,372.427 383.5,372.5 Z"/></g>
<g><path style="opacity:0.31" fill="#aeaeae" d="M 870.5,372.5 C 871.906,372.973 872.573,373.973 872.5,375.5C 871.094,375.027 870.427,374.027 870.5,372.5 Z"/></g>
<g><path style="opacity:0.831" fill="#828282" d="M 378.5,375.5 C 378.027,376.906 377.027,377.573 375.5,377.5C 375.973,376.094 376.973,375.427 378.5,375.5 Z"/></g>
<g><path style="opacity:0.498" fill="#949494" d="M 716.5,375.5 C 718.027,375.427 719.027,376.094 719.5,377.5C 717.973,377.573 716.973,376.906 716.5,375.5 Z"/></g>
<g><path style="opacity:0.824" fill="#838383" d="M 373.5,378.5 C 373.027,379.906 372.027,380.573 370.5,380.5C 370.973,379.094 371.973,378.427 373.5,378.5 Z"/></g>
<g><path style="opacity:0.369" fill="#a8a8a8" d="M 721.5,378.5 C 723.027,378.427 724.027,379.094 724.5,380.5C 722.973,380.573 721.973,379.906 721.5,378.5 Z"/></g>
<g><path style="opacity:0.965" fill="#7d7d7d" d="M 111.5,380.5 C 112.71,380.932 113.71,381.599 114.5,382.5C 112.821,382.715 111.821,382.048 111.5,380.5 Z"/></g>
<g><path style="opacity:0.831" fill="#818181" d="M 368.5,381.5 C 368.027,382.906 367.027,383.573 365.5,383.5C 365.973,382.094 366.973,381.427 368.5,381.5 Z"/></g>
<g><path style="opacity:0.945" fill="#838383" d="M 116.5,383.5 C 117.71,383.932 118.71,384.599 119.5,385.5C 117.821,385.715 116.821,385.048 116.5,383.5 Z"/></g>
<g><path style="opacity:0.827" fill="#828282" d="M 363.5,384.5 C 363.027,385.906 362.027,386.573 360.5,386.5C 360.973,385.094 361.973,384.427 363.5,384.5 Z"/></g>
<g><path style="opacity:0.333" fill="#b0b0b0" d="M 733.5,385.5 C 735.027,385.427 736.027,386.094 736.5,387.5C 734.973,387.573 733.973,386.906 733.5,385.5 Z"/></g>
<g><path style="opacity:0.937" fill="#868686" d="M 121.5,386.5 C 122.71,386.932 123.71,387.599 124.5,388.5C 122.821,388.715 121.821,388.048 121.5,386.5 Z"/></g>
<g><path style="opacity:0.631" fill="#8a8a8a" d="M 874.5,381.5 C 875.924,383.515 876.59,385.848 876.5,388.5C 875.076,386.485 874.41,384.152 874.5,381.5 Z"/></g>
<g><path style="opacity:0.827" fill="#828282" d="M 358.5,387.5 C 358.027,388.906 357.027,389.573 355.5,389.5C 355.973,388.094 356.973,387.427 358.5,387.5 Z"/></g>
<g><path style="opacity:0.933" fill="#888888" d="M 126.5,389.5 C 128.23,390.026 129.564,391.026 130.5,392.5C 128.368,392.446 127.035,391.446 126.5,389.5 Z"/></g>
<g><path style="opacity:0.4" fill="#a3a3a3" d="M 740.5,389.5 C 742.027,389.427 743.027,390.094 743.5,391.5C 741.973,391.573 740.973,390.906 740.5,389.5 Z"/></g>
<g><path style="opacity:0.835" fill="#818181" d="M 353.5,390.5 C 353.027,391.906 352.027,392.573 350.5,392.5C 350.973,391.094 351.973,390.427 353.5,390.5 Z"/></g>
<g><path style="opacity:0.929" fill="#898989" d="M 131.5,392.5 C 133.23,393.026 134.564,394.026 135.5,395.5C 133.368,395.446 132.035,394.446 131.5,392.5 Z"/></g>
<g><path style="opacity:0.835" fill="#818181" d="M 348.5,393.5 C 348.027,394.906 347.027,395.573 345.5,395.5C 345.973,394.094 346.973,393.427 348.5,393.5 Z"/></g>
<g><path style="opacity:0.514" fill="#919191" d="M 747.5,393.5 C 749.027,393.427 750.027,394.094 750.5,395.5C 748.973,395.573 747.973,394.906 747.5,393.5 Z"/></g>
<g><path style="opacity:0.827" fill="#838383" d="M 343.5,396.5 C 343.027,397.906 342.027,398.573 340.5,398.5C 340.973,397.094 341.973,396.427 343.5,396.5 Z"/></g>
<g><path style="opacity:0.369" fill="#a7a7a7" d="M 752.5,396.5 C 754.027,396.427 755.027,397.094 755.5,398.5C 753.973,398.573 752.973,397.906 752.5,396.5 Z"/></g>
<g><path style="opacity:0.839" fill="#818181" d="M 338.5,399.5 C 338.027,400.906 337.027,401.573 335.5,401.5C 335.973,400.094 336.973,399.427 338.5,399.5 Z"/></g>
<g><path style="opacity:0.973" fill="#797979" d="M 144.5,400.5 C 145.71,400.932 146.71,401.599 147.5,402.5C 145.821,402.715 144.821,402.048 144.5,400.5 Z"/></g>
<g><path style="opacity:0.545" fill="#8d8d8d" d="M 759.5,400.5 C 761.027,400.427 762.027,401.094 762.5,402.5C 760.973,402.573 759.973,401.906 759.5,400.5 Z"/></g>
<g><path style="opacity:0.831" fill="#818181" d="M 333.5,402.5 C 333.027,403.906 332.027,404.573 330.5,404.5C 330.973,403.094 331.973,402.427 333.5,402.5 Z"/></g>
<g><path style="opacity:0.533" fill="#969696" d="M 762.5,402.5 C 764.027,402.427 765.027,403.094 765.5,404.5C 763.973,404.573 762.973,403.906 762.5,402.5 Z"/></g>
<g><path style="opacity:0.969" fill="#7b7b7b" d="M 149.5,403.5 C 150.71,403.932 151.71,404.599 152.5,405.5C 150.821,405.715 149.821,405.048 149.5,403.5 Z"/></g>
<g><path style="opacity:0.839" fill="#808080" d="M 328.5,405.5 C 328.027,406.906 327.027,407.573 325.5,407.5C 325.973,406.094 326.973,405.427 328.5,405.5 Z"/></g>
<g><path style="opacity:0.737" fill="#acacac" d="M 767.5,406.5 C 770.5,407.5 772.5,409.5 773.5,412.5C 771.167,410.833 769.167,408.833 767.5,406.5 Z"/></g>
<g><path style="opacity:0.961" fill="#7e7e7e" d="M 154.5,406.5 C 155.71,406.932 156.71,407.599 157.5,408.5C 155.821,408.715 154.821,408.048 154.5,406.5 Z"/></g>
<g><path style="opacity:0.831" fill="#828282" d="M 323.5,408.5 C 323.027,409.906 322.027,410.573 320.5,410.5C 320.973,409.094 321.973,408.427 323.5,408.5 Z"/></g>
<g><path style="opacity:0.961" fill="#7d7d7d" d="M 159.5,409.5 C 160.71,409.932 161.71,410.599 162.5,411.5C 160.821,411.715 159.821,411.048 159.5,409.5 Z"/></g>
<g><path style="opacity:0.831" fill="#818181" d="M 318.5,411.5 C 318.027,412.906 317.027,413.573 315.5,413.5C 315.973,412.094 316.973,411.427 318.5,411.5 Z"/></g>
<g><path style="opacity:0.957" fill="#808080" d="M 164.5,412.5 C 165.71,412.932 166.71,413.599 167.5,414.5C 165.821,414.715 164.821,414.048 164.5,412.5 Z"/></g>
<g><path style="opacity:0.831" fill="#808080" d="M 313.5,414.5 C 313.027,415.906 312.027,416.573 310.5,416.5C 310.973,415.094 311.973,414.427 313.5,414.5 Z"/></g>
<g><path style="opacity:0.933" fill="#878787" d="M 169.5,415.5 C 170.71,415.932 171.71,416.599 172.5,417.5C 170.821,417.715 169.821,417.048 169.5,415.5 Z"/></g>
<g><path style="opacity:0.831" fill="#808080" d="M 308.5,417.5 C 308.027,418.906 307.027,419.573 305.5,419.5C 305.973,418.094 306.973,417.427 308.5,417.5 Z"/></g>
<g><path style="opacity:0.929" fill="#888888" d="M 174.5,418.5 C 176.23,419.026 177.564,420.026 178.5,421.5C 176.368,421.446 175.035,420.446 174.5,418.5 Z"/></g>
<g><path style="opacity:0.831" fill="#808080" d="M 303.5,420.5 C 303.027,421.906 302.027,422.573 300.5,422.5C 300.973,421.094 301.973,420.427 303.5,420.5 Z"/></g>
<g><path style="opacity:0.78" fill="#a0a0a0" d="M 14.5,423.5 C 17.0892,424.419 19.0892,426.086 20.5,428.5C 17.9108,427.581 15.9108,425.914 14.5,423.5 Z"/></g>
<g><path style="opacity:0.831" fill="#808080" d="M 298.5,423.5 C 298.027,424.906 297.027,425.573 295.5,425.5C 295.973,424.094 296.973,423.427 298.5,423.5 Z"/></g>
<g><path style="opacity:0.835" fill="#808080" d="M 293.5,426.5 C 293.027,427.906 292.027,428.573 290.5,428.5C 290.973,427.094 291.973,426.427 293.5,426.5 Z"/></g>
<g><path style="opacity:0.973" fill="#797979" d="M 192.5,429.5 C 193.71,429.932 194.71,430.599 195.5,431.5C 193.821,431.715 192.821,431.048 192.5,429.5 Z"/></g>
<g><path style="opacity:0.847" fill="#7f7f7f" d="M 288.5,429.5 C 288.027,430.906 287.027,431.573 285.5,431.5C 285.973,430.094 286.973,429.427 288.5,429.5 Z"/></g>
<g><path style="opacity:0.576" fill="#8d8d8d" d="M 24.5,431.5 C 26.0269,431.427 27.0269,432.094 27.5,433.5C 25.9731,433.573 24.9731,432.906 24.5,431.5 Z"/></g>
<g><path style="opacity:0.965" fill="#7d7d7d" d="M 197.5,432.5 C 198.71,432.932 199.71,433.599 200.5,434.5C 198.821,434.715 197.821,434.048 197.5,432.5 Z"/></g>
<g><path style="opacity:0.851" fill="#7c7c7c" d="M 283.5,432.5 C 283.027,433.906 282.027,434.573 280.5,434.5C 280.973,433.094 281.973,432.427 283.5,432.5 Z"/></g>
<g><path style="opacity:0.961" fill="#7d7d7d" d="M 202.5,435.5 C 203.71,435.932 204.71,436.599 205.5,437.5C 203.821,437.715 202.821,437.048 202.5,435.5 Z"/></g>
<g><path style="opacity:0.835" fill="#818181" d="M 278.5,435.5 C 278.027,436.906 277.027,437.573 275.5,437.5C 275.973,436.094 276.973,435.427 278.5,435.5 Z"/></g>
<g><path style="opacity:0.369" fill="#aaaaaa" d="M 34.5,437.5 C 36.0269,437.427 37.0269,438.094 37.5,439.5C 35.9731,439.573 34.9731,438.906 34.5,437.5 Z"/></g>
<g><path style="opacity:0.957" fill="#7e7e7e" d="M 207.5,438.5 C 208.71,438.932 209.71,439.599 210.5,440.5C 208.821,440.715 207.821,440.048 207.5,438.5 Z"/></g>
<g><path style="opacity:0.835" fill="#818181" d="M 273.5,438.5 C 273.027,439.906 272.027,440.573 270.5,440.5C 270.973,439.094 271.973,438.427 273.5,438.5 Z"/></g>
<g><path style="opacity:0.435" fill="#9d9d9d" d="M 41.5,441.5 C 43.0269,441.427 44.0269,442.094 44.5,443.5C 42.9731,443.573 41.9731,442.906 41.5,441.5 Z"/></g>
<g><path style="opacity:0.345" fill="#afafaf" d="M 46.5,444.5 C 48.0269,444.427 49.0269,445.094 49.5,446.5C 47.9731,446.573 46.9731,445.906 46.5,444.5 Z"/></g>
<g><path style="opacity:0.369" fill="#a8a8a8" d="M 53.5,448.5 C 55.0269,448.427 56.0269,449.094 56.5,450.5C 54.9731,450.573 53.9731,449.906 53.5,448.5 Z"/></g>
<g><path style="opacity:0.435" fill="#9e9e9e" d="M 60.5,452.5 C 62.0269,452.427 63.0269,453.094 63.5,454.5C 61.9731,454.573 60.9731,453.906 60.5,452.5 Z"/></g>
<g><path style="opacity:0.333" fill="#b0b0b0" d="M 65.5,455.5 C 67.0269,455.427 68.0269,456.094 68.5,457.5C 66.9731,457.573 65.9731,456.906 65.5,455.5 Z"/></g>
<g><path style="opacity:0.369" fill="#a7a7a7" d="M 72.5,459.5 C 74.0269,459.427 75.0269,460.094 75.5,461.5C 73.9731,461.573 72.9731,460.906 72.5,459.5 Z"/></g>
<g><path style="opacity:0.369" fill="#aaaaaa" d="M 84.5,466.5 C 86.0269,466.427 87.0269,467.094 87.5,468.5C 85.9731,468.573 84.9731,467.906 84.5,466.5 Z"/></g>
<g><path style="opacity:0.4" fill="#a3a3a3" d="M 91.5,470.5 C 93.0269,470.427 94.0269,471.094 94.5,472.5C 92.9731,472.573 91.9731,471.906 91.5,470.5 Z"/></g>
<g><path style="opacity:0.369" fill="#ababab" d="M 103.5,477.5 C 105.027,477.427 106.027,478.094 106.5,479.5C 104.973,479.573 103.973,478.906 103.5,477.5 Z"/></g>
<g><path style="opacity:0.435" fill="#9e9e9e" d="M 110.5,481.5 C 112.027,481.427 113.027,482.094 113.5,483.5C 111.973,483.573 110.973,482.906 110.5,481.5 Z"/></g>
<g><path style="opacity:0.333" fill="#b0b0b0" d="M 115.5,484.5 C 117.027,484.427 118.027,485.094 118.5,486.5C 116.973,486.573 115.973,485.906 115.5,484.5 Z"/></g>
<g><path style="opacity:0.424" fill="#a1a1a1" d="M 122.5,488.5 C 124.027,488.427 125.027,489.094 125.5,490.5C 123.973,490.573 122.973,489.906 122.5,488.5 Z"/></g>
<g><path style="opacity:0.541" fill="#868686" d="M 483.5,568.5 C 483.164,542.65 482.164,516.984 480.5,491.5C 481.172,490.733 482.005,490.066 483,489.5C 483.5,515.831 483.667,542.165 483.5,568.5 Z"/></g>
<g><path style="opacity:0.78" fill="#8f8f8f" d="M 480.5,491.5 C 480.027,492.906 479.027,493.573 477.5,493.5C 477.973,492.094 478.973,491.427 480.5,491.5 Z"/></g>
<g><path style="opacity:0.871" fill="#787878" d="M 475.5,494.5 C 475.027,495.906 474.027,496.573 472.5,496.5C 472.973,495.094 473.973,494.427 475.5,494.5 Z"/></g>
<g><path style="opacity:0.369" fill="#acacac" d="M 134.5,495.5 C 136.027,495.427 137.027,496.094 137.5,497.5C 135.973,497.573 134.973,496.906 134.5,495.5 Z"/></g>
<g><path style="opacity:0.831" fill="#818181" d="M 468.5,498.5 C 468.027,499.906 467.027,500.573 465.5,500.5C 465.973,499.094 466.973,498.427 468.5,498.5 Z"/></g>
<g><path style="opacity:0.4" fill="#a3a3a3" d="M 141.5,499.5 C 143.027,499.427 144.027,500.094 144.5,501.5C 142.973,501.573 141.973,500.906 141.5,499.5 Z"/></g>
<g><path style="opacity:0.78" fill="#8e8e8e" d="M 461.5,502.5 C 461.027,503.906 460.027,504.573 458.5,504.5C 458.973,503.094 459.973,502.427 461.5,502.5 Z"/></g>
<g><path style="opacity:0.369" fill="#ababab" d="M 153.5,506.5 C 155.027,506.427 156.027,507.094 156.5,508.5C 154.973,508.573 153.973,507.906 153.5,506.5 Z"/></g>
<g><path style="opacity:0.831" fill="#818181" d="M 449.5,509.5 C 449.027,510.906 448.027,511.573 446.5,511.5C 446.973,510.094 447.973,509.427 449.5,509.5 Z"/></g>
<g><path style="opacity:0.435" fill="#9e9e9e" d="M 160.5,510.5 C 162.027,510.427 163.027,511.094 163.5,512.5C 161.973,512.573 160.973,511.906 160.5,510.5 Z"/></g>
<g><path style="opacity:0.333" fill="#b0b0b0" d="M 165.5,513.5 C 167.027,513.427 168.027,514.094 168.5,515.5C 166.973,515.573 165.973,514.906 165.5,513.5 Z"/></g>
<g><path style="opacity:0.784" fill="#8e8e8e" d="M 442.5,513.5 C 442.027,514.906 441.027,515.573 439.5,515.5C 439.973,514.094 440.973,513.427 442.5,513.5 Z"/></g>
<g><path style="opacity:0.369" fill="#a7a7a7" d="M 172.5,517.5 C 174.027,517.427 175.027,518.094 175.5,519.5C 173.973,519.573 172.973,518.906 172.5,517.5 Z"/></g>
<g><path style="opacity:0.835" fill="#818181" d="M 430.5,520.5 C 430.027,521.906 429.027,522.573 427.5,522.5C 427.973,521.094 428.973,520.427 430.5,520.5 Z"/></g>
<g><path style="opacity:0.369" fill="#acacac" d="M 184.5,524.5 C 186.027,524.427 187.027,525.094 187.5,526.5C 185.973,526.573 184.973,525.906 184.5,524.5 Z"/></g>
<g><path style="opacity:0.816" fill="#888888" d="M 423.5,524.5 C 423.027,525.906 422.027,526.573 420.5,526.5C 420.973,525.094 421.973,524.427 423.5,524.5 Z"/></g>
<g><path style="opacity:0.4" fill="#a3a3a3" d="M 191.5,528.5 C 193.027,528.427 194.027,529.094 194.5,530.5C 192.973,530.573 191.973,529.906 191.5,528.5 Z"/></g>
<g><path style="opacity:0.765" fill="#939393" d="M 416.5,528.5 C 416.027,529.906 415.027,530.573 413.5,530.5C 413.973,529.094 414.973,528.427 416.5,528.5 Z"/></g>
<g><path style="opacity:0.835" fill="#818181" d="M 411.5,531.5 C 411.027,532.906 410.027,533.573 408.5,533.5C 408.973,532.094 409.973,531.427 411.5,531.5 Z"/></g>
<g><path style="opacity:0.369" fill="#ababab" d="M 203.5,535.5 C 205.027,535.427 206.027,536.094 206.5,537.5C 204.973,537.573 203.973,536.906 203.5,535.5 Z"/></g>
<g><path style="opacity:0.816" fill="#888888" d="M 404.5,535.5 C 404.027,536.906 403.027,537.573 401.5,537.5C 401.973,536.094 402.973,535.427 404.5,535.5 Z"/></g>
<g><path style="opacity:0.439" fill="#9e9e9e" d="M 210.5,539.5 C 212.027,539.427 213.027,540.094 213.5,541.5C 211.973,541.573 210.973,540.906 210.5,539.5 Z"/></g>
<g><path style="opacity:0.541" fill="#8c8c8c" d="M 397.5,539.5 C 396.509,567.759 396.175,596.093 396.5,624.5C 395.833,610.504 395.5,596.337 395.5,582C 395.501,567.484 396.167,553.317 397.5,539.5 Z"/></g>
<g><path style="opacity:0.537" fill="#8f8f8f" d="M 490.5,591.5 C 491.906,591.973 492.573,592.973 492.5,594.5C 491.094,594.027 490.427,593.027 490.5,591.5 Z"/></g>
<g><path style="opacity:0.51" fill="#9b9b9b" d="M 779.5,592.5 C 779.573,594.027 778.906,595.027 777.5,595.5C 777.427,593.973 778.094,592.973 779.5,592.5 Z"/></g>
<g><path style="opacity:0.608" fill="#8c8c8c" d="M 492.5,594.5 C 493.906,594.973 494.573,595.973 494.5,597.5C 493.094,597.027 492.427,596.027 492.5,594.5 Z"/></g>
<g><path style="opacity:0.867" fill="#878787" d="M 777.5,595.5 C 777.262,597.404 776.262,598.738 774.5,599.5C 774.738,597.596 775.738,596.262 777.5,595.5 Z"/></g>
<g><path style="opacity:0.796" fill="#9d9d9d" d="M 496.5,599.5 C 498.5,600.833 500.167,602.5 501.5,604.5C 498.833,603.833 497.167,602.167 496.5,599.5 Z"/></g>
<g><path style="opacity:0.753" fill="#7f7f7f" d="M 767.5,606.5 C 766.738,608.262 765.404,609.262 763.5,609.5C 764.262,607.738 765.596,606.738 767.5,606.5 Z"/></g>
<g><path style="opacity:0.839" fill="#7d7d7d" d="M 763.5,609.5 C 763.027,610.906 762.027,611.573 760.5,611.5C 760.973,610.094 761.973,609.427 763.5,609.5 Z"/></g>
<g><path style="opacity:0.961" fill="#7e7e7e" d="M 509.5,610.5 C 510.71,610.932 511.71,611.599 512.5,612.5C 510.821,612.715 509.821,612.048 509.5,610.5 Z"/></g>
<g><path style="opacity:0.925" fill="#888888" d="M 516.5,614.5 C 517.71,614.932 518.71,615.599 519.5,616.5C 517.821,616.715 516.821,616.048 516.5,614.5 Z"/></g>
<g><path style="opacity:0.773" fill="#8f8f8f" d="M 753.5,615.5 C 753.027,616.906 752.027,617.573 750.5,617.5C 750.973,616.094 751.973,615.427 753.5,615.5 Z"/></g>
<g><path style="opacity:0.808" fill="#8a8a8a" d="M 748.5,618.5 C 748.027,619.906 747.027,620.573 745.5,620.5C 745.973,619.094 746.973,618.427 748.5,618.5 Z"/></g>
<g><path style="opacity:0.937" fill="#858585" d="M 528.5,621.5 C 529.71,621.932 530.71,622.599 531.5,623.5C 529.821,623.715 528.821,623.048 528.5,621.5 Z"/></g>
<g><path style="opacity:0.827" fill="#838383" d="M 743.5,621.5 C 743.027,622.906 742.027,623.573 740.5,623.5C 740.973,622.094 741.973,621.427 743.5,621.5 Z"/></g>
<g><path style="opacity:0.831" fill="#828282" d="M 738.5,624.5 C 738.027,625.906 737.027,626.573 735.5,626.5C 735.973,625.094 736.973,624.427 738.5,624.5 Z"/></g>
<g><path style="opacity:0.843" fill="#7d7d7d" d="M 733.5,627.5 C 733.027,628.906 732.027,629.573 730.5,629.5C 730.973,628.094 731.973,627.427 733.5,627.5 Z"/></g>
<g><path style="opacity:0.949" fill="#808080" d="M 540.5,628.5 C 541.71,628.932 542.71,629.599 543.5,630.5C 541.821,630.715 540.821,630.048 540.5,628.5 Z"/></g>
<g><path style="opacity:0.725" fill="#9a9a9a" d="M 721.5,634.5 C 721.027,635.906 720.027,636.573 718.5,636.5C 718.973,635.094 719.973,634.427 721.5,634.5 Z"/></g>
<g><path style="opacity:0.961" fill="#7d7d7d" d="M 552.5,635.5 C 553.71,635.932 554.71,636.599 555.5,637.5C 553.821,637.715 552.821,637.048 552.5,635.5 Z"/></g>
<g><path style="opacity:0.769" fill="#919191" d="M 716.5,637.5 C 716.027,638.906 715.027,639.573 713.5,639.5C 713.973,638.094 714.973,637.427 716.5,637.5 Z"/></g>
<g><path style="opacity:0.78" fill="#8f8f8f" d="M 711.5,640.5 C 711.027,641.906 710.027,642.573 708.5,642.5C 708.973,641.094 709.973,640.427 711.5,640.5 Z"/></g>
<g><path style="opacity:0.945" fill="#838383" d="M 402.5,643.5 C 404.048,643.821 404.715,644.821 404.5,646.5C 403.599,645.71 402.932,644.71 402.5,643.5 Z"/></g>
<g><path style="opacity:0.816" fill="#888888" d="M 706.5,643.5 C 706.027,644.906 705.027,645.573 703.5,645.5C 703.973,644.094 704.973,643.427 706.5,643.5 Z"/></g>
<g><path style="opacity:0.98" fill="#808080" d="M 404.5,646.5 C 406.446,647.035 407.446,648.368 407.5,650.5C 406.026,649.564 405.026,648.23 404.5,646.5 Z"/></g>
<g><path style="opacity:0.945" fill="#828282" d="M 571.5,646.5 C 572.71,646.932 573.71,647.599 574.5,648.5C 572.821,648.715 571.821,648.048 571.5,646.5 Z"/></g>
<g><path style="opacity:0.835" fill="#818181" d="M 701.5,646.5 C 701.027,647.906 700.027,648.573 698.5,648.5C 698.973,647.094 699.973,646.427 701.5,646.5 Z"/></g>
<g><path style="opacity:0.855" fill="#7d7d7d" d="M 696.5,649.5 C 696.027,650.906 695.027,651.573 693.5,651.5C 693.973,650.094 694.973,649.427 696.5,649.5 Z"/></g>
<g><path style="opacity:0.004" fill="#c5c5c5" d="M 409.5,652.5 C 410.906,652.973 411.573,653.973 411.5,655.5C 410.094,655.027 409.427,654.027 409.5,652.5 Z"/></g>
<g><path style="opacity:0.957" fill="#7e7e7e" d="M 583.5,653.5 C 584.71,653.932 585.71,654.599 586.5,655.5C 584.821,655.715 583.821,655.048 583.5,653.5 Z"/></g>
<g><path style="opacity:0.694" fill="#a3a3a3" d="M 411.5,655.5 C 413.404,655.738 414.738,656.738 415.5,658.5C 413.596,658.262 412.262,657.262 411.5,655.5 Z"/></g>
<g><path style="opacity:0.761" fill="#939393" d="M 679.5,659.5 C 679.027,660.906 678.027,661.573 676.5,661.5C 676.973,660.094 677.973,659.427 679.5,659.5 Z"/></g>
<g><path style="opacity:0.965" fill="#7c7c7c" d="M 595.5,660.5 C 596.71,660.932 597.71,661.599 598.5,662.5C 596.821,662.715 595.821,662.048 595.5,660.5 Z"/></g>
<g><path style="opacity:0.627" fill="#828282" d="M 420.5,662.5 C 422.027,662.427 423.027,663.094 423.5,664.5C 421.973,664.573 420.973,663.906 420.5,662.5 Z"/></g>
<g><path style="opacity:0.784" fill="#8e8e8e" d="M 674.5,662.5 C 674.027,663.906 673.027,664.573 671.5,664.5C 671.973,663.094 672.973,662.427 674.5,662.5 Z"/></g>
<g><path style="opacity:0.369" fill="#a8a8a8" d="M 423.5,664.5 C 425.027,664.427 426.027,665.094 426.5,666.5C 424.973,666.573 423.973,665.906 423.5,664.5 Z"/></g>
<g><path style="opacity:0.937" fill="#848484" d="M 602.5,664.5 C 603.71,664.932 604.71,665.599 605.5,666.5C 603.821,666.715 602.821,666.048 602.5,664.5 Z"/></g>
<g><path style="opacity:0.784" fill="#8e8e8e" d="M 669.5,665.5 C 669.027,666.906 668.027,667.573 666.5,667.5C 666.973,666.094 667.973,665.427 669.5,665.5 Z"/></g>
<g><path style="opacity:0.369" fill="#ababab" d="M 435.5,671.5 C 437.027,671.427 438.027,672.094 438.5,673.5C 436.973,673.573 435.973,672.906 435.5,671.5 Z"/></g>
<g><path style="opacity:0.4" fill="#a3a3a3" d="M 442.5,675.5 C 444.027,675.427 445.027,676.094 445.5,677.5C 443.973,677.573 442.973,676.906 442.5,675.5 Z"/></g>
<g><path style="opacity:0.369" fill="#acacac" d="M 454.5,682.5 C 456.027,682.427 457.027,683.094 457.5,684.5C 455.973,684.573 454.973,683.906 454.5,682.5 Z"/></g>
<g><path style="opacity:0.435" fill="#9f9f9f" d="M 461.5,686.5 C 463.027,686.427 464.027,687.094 464.5,688.5C 462.973,688.573 461.973,687.906 461.5,686.5 Z"/></g>
<g><path style="opacity:0.369" fill="#a8a8a8" d="M 473.5,693.5 C 475.027,693.427 476.027,694.094 476.5,695.5C 474.973,695.573 473.973,694.906 473.5,693.5 Z"/></g>
<g><path style="opacity:0.435" fill="#9e9e9e" d="M 480.5,697.5 C 482.027,697.427 483.027,698.094 483.5,699.5C 481.973,699.573 480.973,698.906 480.5,697.5 Z"/></g>
<g><path style="opacity:0.333" fill="#b0b0b0" d="M 485.5,700.5 C 487.027,700.427 488.027,701.094 488.5,702.5C 486.973,702.573 485.973,701.906 485.5,700.5 Z"/></g>
<g><path style="opacity:0.4" fill="#a4a4a4" d="M 492.5,704.5 C 494.027,704.427 495.027,705.094 495.5,706.5C 493.973,706.573 492.973,705.906 492.5,704.5 Z"/></g>
<g><path style="opacity:0.369" fill="#acacac" d="M 504.5,711.5 C 506.027,711.427 507.027,712.094 507.5,713.5C 505.973,713.573 504.973,712.906 504.5,711.5 Z"/></g>
<g><path style="opacity:0.435" fill="#9f9f9f" d="M 511.5,715.5 C 513.027,715.427 514.027,716.094 514.5,717.5C 512.973,717.573 511.973,716.906 511.5,715.5 Z"/></g>
<g><path style="opacity:0.369" fill="#a8a8a8" d="M 523.5,722.5 C 525.027,722.427 526.027,723.094 526.5,724.5C 524.973,724.573 523.973,723.906 523.5,722.5 Z"/></g>
<g><path style="opacity:0.435" fill="#9e9e9e" d="M 530.5,726.5 C 532.027,726.427 533.027,727.094 533.5,728.5C 531.973,728.573 530.973,727.906 530.5,726.5 Z"/></g>
<g><path style="opacity:0.333" fill="#b0b0b0" d="M 535.5,729.5 C 537.027,729.427 538.027,730.094 538.5,731.5C 536.973,731.573 535.973,730.906 535.5,729.5 Z"/></g>
<g><path style="opacity:0.4" fill="#a4a4a4" d="M 542.5,733.5 C 544.027,733.427 545.027,734.094 545.5,735.5C 543.973,735.573 542.973,734.906 542.5,733.5 Z"/></g>
<g><path style="opacity:0.369" fill="#acacac" d="M 554.5,740.5 C 556.027,740.427 557.027,741.094 557.5,742.5C 555.973,742.573 554.973,741.906 554.5,740.5 Z"/></g>
<g><path style="opacity:0.435" fill="#9f9f9f" d="M 561.5,744.5 C 563.027,744.427 564.027,745.094 564.5,746.5C 562.973,746.573 561.973,745.906 561.5,744.5 Z"/></g>
<g><path style="opacity:0.369" fill="#a8a8a8" d="M 573.5,751.5 C 575.027,751.427 576.027,752.094 576.5,753.5C 574.973,753.573 573.973,752.906 573.5,751.5 Z"/></g>
<g><path style="opacity:0.435" fill="#9e9e9e" d="M 580.5,755.5 C 582.027,755.427 583.027,756.094 583.5,757.5C 581.973,757.573 580.973,756.906 580.5,755.5 Z"/></g>
<g><path style="opacity:0.333" fill="#b0b0b0" d="M 585.5,758.5 C 587.027,758.427 588.027,759.094 588.5,760.5C 586.973,760.573 585.973,759.906 585.5,758.5 Z"/></g>
<g><path style="opacity:0.4" fill="#a4a4a4" d="M 592.5,762.5 C 594.027,762.427 595.027,763.094 595.5,764.5C 593.973,764.573 592.973,763.906 592.5,762.5 Z"/></g>
<g><path style="opacity:0.369" fill="#acacac" d="M 604.5,769.5 C 606.027,769.427 607.027,770.094 607.5,771.5C 605.973,771.573 604.973,770.906 604.5,769.5 Z"/></g>
</svg>
